<svg width="900" height="450" viewBox="0 0 900 450" fill="none" xmlns="http://www.w3.org/2000/svg">
<rect width="450" height="450" fill="url(#paint0_linear_353_3449)"/>
<path d="M101.428 124.692C101.428 154.752 101.428 184.2 101.428 179.12C71.3684 179.12 47 154.752 47 124.692C47 94.6316 71.3684 70.2632 101.428 70.2632C101.428 66.9979 101.428 94.6316 101.428 124.692Z" fill="white"/>
<path d="M143.999 124.69C143.999 154.749 143.999 184.197 143.999 179.116C174.059 179.116 198.428 154.749 198.428 124.69C198.428 94.6308 174.059 70.2631 143.999 70.2631C143.999 66.998 143.999 94.6308 143.999 124.69Z" fill="white"/>
<path d="M306.428 124.692C306.428 154.752 306.428 184.2 306.428 179.12C276.368 179.12 252 154.752 252 124.692C252 94.6316 276.368 70.2632 306.428 70.2632C306.428 66.9979 306.428 94.6316 306.428 124.692Z" fill="white"/>
<path d="M348.999 124.69C348.999 154.749 348.999 184.197 348.999 179.116C379.059 179.116 403.428 154.749 403.428 124.69C403.428 94.6308 379.059 70.2631 348.999 70.2631C348.999 66.998 348.999 94.6308 348.999 124.69Z" fill="white"/>
<path d="M101.428 324.692C101.428 354.752 101.428 384.2 101.428 379.12C71.3684 379.12 47 354.752 47 324.692C47 294.632 71.3684 270.263 101.428 270.263C101.428 266.998 101.428 294.632 101.428 324.692Z" fill="white"/>
<path d="M143.999 324.69C143.999 354.749 143.999 384.197 143.999 379.116C174.059 379.116 198.428 354.749 198.428 324.69C198.428 294.631 174.059 270.263 143.999 270.263C143.999 266.998 143.999 294.631 143.999 324.69Z" fill="white"/>
<path d="M306.428 324.692C306.428 354.752 306.428 384.2 306.428 379.12C276.368 379.12 252 354.752 252 324.692C252 294.632 276.368 270.263 306.428 270.263C306.428 266.998 306.428 294.632 306.428 324.692Z" fill="white"/>
<path d="M348.999 324.69C348.999 354.749 348.999 384.197 348.999 379.116C379.059 379.116 403.428 354.749 403.428 324.69C403.428 294.631 379.059 270.263 348.999 270.263C348.999 266.998 348.999 294.631 348.999 324.69Z" fill="white"/>
<rect x="450" width="450" height="450" fill="url(#paint1_linear_353_3449)"/>
<path d="M571.428 124.692C571.428 154.752 571.428 184.2 571.428 179.12C541.368 179.12 517 154.752 517 124.692C517 94.6316 541.368 70.2632 571.428 70.2632C571.428 66.9979 571.428 94.6316 571.428 124.692Z" fill="white"/>
<path d="M570.999 124.69C570.999 154.749 570.999 184.197 570.999 179.116C601.059 179.116 625.428 154.749 625.428 124.69C625.428 94.6308 601.059 70.2631 570.999 70.2631C570.999 66.998 570.999 94.6308 570.999 124.69Z" fill="white"/>
<path d="M778.428 124.692C778.428 154.752 778.428 184.2 778.428 179.12C748.368 179.12 724 154.752 724 124.692C724 94.6316 748.368 70.2632 778.428 70.2632C778.428 66.9979 778.428 94.6316 778.428 124.692Z" fill="white"/>
<path d="M777.999 124.69C777.999 154.749 777.999 184.197 777.999 179.116C808.059 179.116 832.428 154.749 832.428 124.69C832.428 94.6308 808.059 70.2631 777.999 70.2631C777.999 66.998 777.999 94.6308 777.999 124.69Z" fill="white"/>
<path d="M571.428 324.692C571.428 354.752 571.428 384.2 571.428 379.12C541.368 379.12 517 354.752 517 324.692C517 294.632 541.368 270.263 571.428 270.263C571.428 266.998 571.428 294.632 571.428 324.692Z" fill="white"/>
<path d="M570.999 324.69C570.999 354.749 570.999 384.197 570.999 379.116C601.059 379.116 625.428 354.749 625.428 324.69C625.428 294.631 601.059 270.263 570.999 270.263C570.999 266.998 570.999 294.631 570.999 324.69Z" fill="white"/>
<path d="M778.428 324.692C778.428 354.752 778.428 384.2 778.428 379.12C748.368 379.12 724 354.752 724 324.692C724 294.632 748.368 270.263 778.428 270.263C778.428 266.998 778.428 294.632 778.428 324.692Z" fill="white"/>
<path d="M777.999 324.69C777.999 354.749 777.999 384.197 777.999 379.116C808.059 379.116 832.428 354.749 832.428 324.69C832.428 294.631 808.059 270.263 777.999 270.263C777.999 266.998 777.999 294.631 777.999 324.69Z" fill="white"/>
<defs>
<linearGradient id="paint0_linear_353_3449" x1="225" y1="0" x2="225" y2="450" gradientUnits="userSpaceOnUse">
<stop stop-color="#A19BF4"/>
<stop offset="1" stop-color="#DDC966"/>
</linearGradient>
<linearGradient id="paint1_linear_353_3449" x1="675" y1="0" x2="675" y2="450" gradientUnits="userSpaceOnUse">
<stop stop-color="#A19BF4"/>
<stop offset="1" stop-color="#DDC966"/>
</linearGradient>
</defs>
</svg>
