<svg width="672" height="310" viewBox="0 0 672 310" fill="none" xmlns="http://www.w3.org/2000/svg">
<path d="M54.4284 54.6915C54.4284 84.7515 54.4284 114.2 54.4284 109.12C24.3684 109.12 0 84.7515 0 54.6915C0 24.6316 24.3684 0.263158 54.4284 0.263158C54.4284 -3.00213 54.4284 24.6316 54.4284 54.6915Z" fill="white"/>
<path d="M96.9994 54.6898C96.9994 84.7488 96.9994 114.197 96.9994 109.116C127.059 109.116 151.428 84.7488 151.428 54.6898C151.428 24.6308 127.059 0.26315 96.9994 0.26315C96.9994 -3.00203 96.9994 24.6308 96.9994 54.6898Z" fill="white"/>
<path d="M259.428 54.6915C259.428 84.7515 259.428 114.2 259.428 109.12C229.368 109.12 205 84.7515 205 54.6915C205 24.6316 229.368 0.263158 259.428 0.263158C259.428 -3.00213 259.428 24.6316 259.428 54.6915Z" fill="white"/>
<path d="M301.999 54.6898C301.999 84.7488 301.999 114.197 301.999 109.116C332.059 109.116 356.428 84.7488 356.428 54.6898C356.428 24.6308 332.059 0.26315 301.999 0.26315C301.999 -3.00203 301.999 24.6308 301.999 54.6898Z" fill="white"/>
<path d="M54.4284 254.692C54.4284 284.752 54.4284 314.2 54.4284 309.12C24.3684 309.12 0 284.752 0 254.692C0 224.632 24.3684 200.263 54.4284 200.263C54.4284 196.998 54.4284 224.632 54.4284 254.692Z" fill="white"/>
<path d="M96.9994 254.69C96.9994 284.749 96.9994 314.197 96.9994 309.116C127.059 309.116 151.428 284.749 151.428 254.69C151.428 224.631 127.059 200.263 96.9994 200.263C96.9994 196.998 96.9994 224.631 96.9994 254.69Z" fill="white"/>
<path d="M259.428 254.692C259.428 284.752 259.428 314.2 259.428 309.12C229.368 309.12 205 284.752 205 254.692C205 224.632 229.368 200.263 259.428 200.263C259.428 196.998 259.428 224.632 259.428 254.692Z" fill="white"/>
<path d="M301.999 254.69C301.999 284.749 301.999 314.197 301.999 309.116C332.059 309.116 356.428 284.749 356.428 254.69C356.428 224.631 332.059 200.263 301.999 200.263C301.999 196.998 301.999 224.631 301.999 254.69Z" fill="white"/>
<path d="M410.428 54.6915C410.428 84.7515 410.428 114.2 410.428 109.12C380.368 109.12 356 84.7515 356 54.6915C356 24.6316 380.368 0.263158 410.428 0.263158C410.428 -3.00212 410.428 24.6316 410.428 54.6915Z" fill="white"/>
<path d="M409.999 54.6898C409.999 84.7488 409.999 114.197 409.999 109.116C440.059 109.116 464.428 84.7488 464.428 54.6898C464.428 24.6308 440.059 0.26315 409.999 0.26315C409.999 -3.00203 409.999 24.6308 409.999 54.6898Z" fill="white"/>
<path d="M617.428 54.6915C617.428 84.7515 617.428 114.2 617.428 109.12C587.368 109.12 563 84.7515 563 54.6915C563 24.6316 587.368 0.263158 617.428 0.263158C617.428 -3.00213 617.428 24.6316 617.428 54.6915Z" fill="white"/>
<path d="M616.999 54.6898C616.999 84.7488 616.999 114.197 616.999 109.116C647.059 109.116 671.428 84.7488 671.428 54.6898C671.428 24.6308 647.059 0.26315 616.999 0.26315C616.999 -3.00203 616.999 24.6308 616.999 54.6898Z" fill="white"/>
<path d="M410.428 254.692C410.428 284.752 410.428 314.2 410.428 309.12C380.368 309.12 356 284.752 356 254.692C356 224.632 380.368 200.263 410.428 200.263C410.428 196.998 410.428 224.632 410.428 254.692Z" fill="white"/>
<path d="M409.999 254.69C409.999 284.749 409.999 314.197 409.999 309.116C440.059 309.116 464.428 284.749 464.428 254.69C464.428 224.631 440.059 200.263 409.999 200.263C409.999 196.998 409.999 224.631 409.999 254.69Z" fill="white"/>
<path d="M617.428 254.692C617.428 284.752 617.428 314.2 617.428 309.12C587.368 309.12 563 284.752 563 254.692C563 224.632 587.368 200.263 617.428 200.263C617.428 196.998 617.428 224.632 617.428 254.692Z" fill="white"/>
<path d="M616.999 254.69C616.999 284.749 616.999 314.197 616.999 309.116C647.059 309.116 671.428 284.749 671.428 254.69C671.428 224.631 647.059 200.263 616.999 200.263C616.999 196.998 616.999 224.631 616.999 254.69Z" fill="white"/>
</svg>
