<svg width="468" height="1177" viewBox="0 0 468 1177" fill="none" xmlns="http://www.w3.org/2000/svg">
<rect width="468" height="1177" fill="url(#paint0_linear_354_3593)"/>
<path d="M335.882 944.185C324.673 945.804 315.585 947.116 315.585 947.116C316.848 955.081 326.959 960.227 338.169 958.609C349.379 956.99 357.443 949.221 356.18 941.255C357.588 941.052 347.092 942.567 335.882 944.185Z" fill="white"/>
<path d="M298.657 953.844C287.312 953.625 278.115 953.448 278.115 953.448C278.198 945.399 287.462 939.051 298.807 939.269C310.152 939.488 319.283 946.191 319.2 954.24C320.625 954.267 310.003 954.063 298.657 953.844Z" fill="white"/>
<path d="M286.178 975.593C277.401 986.391 270.287 995.146 270.287 995.146C277.856 1001.13 291.106 997.22 299.883 986.422C308.659 975.623 309.637 962.02 302.068 956.04C303.171 954.683 294.954 964.794 286.178 975.593Z" fill="white"/>
<path d="M310.191 983.582C309.474 997.448 308.893 1008.69 308.893 1008.69C318.543 1009.26 326.947 998.486 327.664 984.62C328.381 970.754 321.14 959.049 311.49 958.475C311.58 956.733 310.909 969.716 310.191 983.582Z" fill="white"/>
<ellipse cx="319.294" cy="941.927" rx="8.03603" ry="7.88661" transform="rotate(15.1815 319.294 941.927)" fill="white"/>
<path d="M342.183 636.834C330.973 638.452 321.886 639.764 321.886 639.764C323.149 647.73 333.26 652.875 344.47 651.257C355.68 649.639 363.743 641.869 362.481 633.904C363.889 633.7 353.393 635.216 342.183 636.834Z" fill="white"/>
<path d="M304.958 646.492C293.613 646.274 284.416 646.096 284.416 646.096C284.498 638.047 293.763 631.699 305.108 631.918C316.453 632.137 325.583 638.839 325.501 646.888C326.926 646.916 316.303 646.711 304.958 646.492Z" fill="white"/>
<path d="M292.478 668.241C283.702 679.04 276.588 687.794 276.588 687.794C284.157 693.775 297.407 689.869 306.183 679.07C314.96 668.271 315.938 654.669 308.369 648.688C309.472 647.331 301.254 657.442 292.478 668.241Z" fill="white"/>
<path d="M316.492 676.231C315.775 690.097 315.194 701.337 315.194 701.337C324.843 701.91 333.248 691.134 333.965 677.268C334.682 663.402 327.441 651.697 317.791 651.124C317.881 649.382 317.209 662.365 316.492 676.231Z" fill="white"/>
<ellipse cx="325.595" cy="634.575" rx="8.03603" ry="7.88661" transform="rotate(15.1815 325.595 634.575)" fill="white"/>
<path d="M101.183 1085.68C89.9733 1087.3 80.8859 1088.61 80.8859 1088.61C82.1487 1096.58 92.2599 1101.72 103.47 1100.1C114.68 1098.49 122.743 1090.72 121.481 1082.75C122.889 1082.55 112.393 1084.06 101.183 1085.68Z" fill="white"/>
<path d="M63.9582 1095.34C52.6129 1095.12 43.4157 1094.94 43.4157 1094.94C43.4984 1086.89 52.7626 1080.55 64.1079 1080.77C75.4532 1080.98 84.5833 1087.69 84.5006 1095.74C85.926 1095.76 75.3034 1095.56 63.9582 1095.34Z" fill="white"/>
<path d="M51.4783 1117.09C42.7021 1127.89 35.5876 1136.64 35.5876 1136.64C43.1567 1142.62 56.4072 1138.72 65.1834 1127.92C73.9596 1117.12 74.9381 1103.52 67.369 1097.54C68.4716 1096.18 60.2545 1106.29 51.4783 1117.09Z" fill="white"/>
<path d="M75.4921 1125.08C74.7749 1138.94 74.1935 1150.18 74.1935 1150.18C83.8434 1150.76 92.2475 1139.98 92.9647 1126.12C93.6819 1112.25 86.4406 1100.54 76.7908 1099.97C76.8809 1098.23 76.2093 1111.21 75.4921 1125.08Z" fill="white"/>
<ellipse cx="84.5946" cy="1083.42" rx="8.03603" ry="7.88661" transform="rotate(15.1815 84.5946 1083.42)" fill="white"/>
<path d="M411.123 1086.8C399.913 1088.42 390.825 1089.73 390.825 1089.73C392.088 1097.7 402.199 1102.84 413.409 1101.23C424.619 1099.61 432.683 1091.84 431.42 1083.87C432.828 1083.67 422.333 1085.18 411.123 1086.8Z" fill="white"/>
<path d="M373.898 1096.46C362.552 1096.24 353.355 1096.06 353.355 1096.06C353.438 1088.02 362.702 1081.67 374.047 1081.89C385.393 1082.11 394.523 1088.81 394.44 1096.86C395.865 1096.88 385.243 1096.68 373.898 1096.46Z" fill="white"/>
<path d="M361.418 1118.21C352.642 1129.01 345.527 1137.76 345.527 1137.76C353.096 1143.74 366.347 1139.84 375.123 1129.04C383.899 1118.24 384.878 1104.64 377.308 1098.66C378.411 1097.3 370.194 1107.41 361.418 1118.21Z" fill="white"/>
<path d="M385.432 1126.2C384.714 1140.07 384.133 1151.31 384.133 1151.31C393.783 1151.88 402.187 1141.1 402.904 1127.24C403.621 1113.37 396.38 1101.67 386.73 1101.09C386.82 1099.35 386.149 1112.33 385.432 1126.2Z" fill="white"/>
<ellipse cx="394.534" cy="1084.54" rx="8.03603" ry="7.88661" transform="rotate(15.1815 394.534 1084.54)" fill="white"/>
<path d="M243.214 1115.71C243.214 1132.52 243.214 1146.15 243.214 1146.15C226.404 1146.15 212.777 1132.52 212.777 1115.71C212.777 1098.9 226.404 1085.28 243.214 1085.28C243.214 1083.16 243.214 1098.9 243.214 1115.71Z" fill="white"/>
<path d="M249.046 1078.87C249.046 1083.26 245.487 1086.82 241.095 1086.82C236.704 1086.82 233.145 1083.26 233.145 1078.87C233.145 1074.48 236.704 1070.92 241.095 1070.92C245.487 1070.92 249.046 1074.48 249.046 1078.87Z" fill="white"/>
<path d="M110.166 798.205C98.9557 799.823 89.8683 801.135 89.8683 801.135C91.1311 809.101 101.242 814.246 112.452 812.628C123.662 811.01 131.726 803.241 130.463 795.275C131.871 795.071 121.376 796.587 110.166 798.205Z" fill="white"/>
<path d="M72.9406 807.863C61.5953 807.645 52.3981 807.467 52.3981 807.467C52.4808 799.418 61.7451 793.07 73.0903 793.289C84.4356 793.508 93.5657 800.21 93.483 808.259C94.9084 808.287 84.2859 808.082 72.9406 807.863Z" fill="white"/>
<path d="M60.4607 829.612C51.6845 840.411 44.57 849.165 44.57 849.165C52.1391 855.146 65.3896 851.24 74.1658 840.441C82.942 829.642 83.9205 816.04 76.3514 810.059C77.454 808.703 69.2369 818.813 60.4607 829.612Z" fill="white"/>
<path d="M84.4746 837.602C83.7574 851.468 83.176 862.708 83.176 862.708C92.8258 863.281 101.23 852.505 101.947 838.639C102.664 824.773 95.423 813.068 85.7732 812.495C85.8633 810.753 85.1918 823.736 84.4746 837.602Z" fill="white"/>
<ellipse cx="93.577" cy="795.946" rx="8.03603" ry="7.88661" transform="rotate(15.1815 93.577 795.946)" fill="white"/>
<path d="M414.49 794.834C403.28 796.452 394.193 797.764 394.193 797.764C395.455 805.73 405.567 810.875 416.776 809.257C427.986 807.639 436.05 799.869 434.787 791.904C436.196 791.7 425.7 793.216 414.49 794.834Z" fill="white"/>
<path d="M377.265 804.492C365.92 804.274 356.722 804.096 356.722 804.096C356.805 796.047 366.069 789.699 377.415 789.918C388.76 790.137 397.89 796.839 397.807 804.888C399.233 804.916 388.61 804.711 377.265 804.492Z" fill="white"/>
<path d="M364.785 826.241C356.009 837.04 348.894 845.794 348.894 845.794C356.463 851.775 369.714 847.869 378.49 837.07C387.266 826.271 388.245 812.669 380.676 806.688C381.778 805.331 373.561 815.442 364.785 826.241Z" fill="white"/>
<path d="M388.799 834.231C388.082 848.097 387.5 859.337 387.5 859.337C397.15 859.91 405.554 849.134 406.271 835.268C406.989 821.402 399.747 809.697 390.097 809.124C390.188 807.382 389.516 820.365 388.799 834.231Z" fill="white"/>
<ellipse cx="397.901" cy="792.575" rx="8.03603" ry="7.88661" transform="rotate(15.1815 397.901 792.575)" fill="white"/>
<path d="M242.726 833.636C242.726 850.446 242.726 864.073 242.726 864.073C225.916 864.073 212.289 850.446 212.289 833.636C212.289 816.826 225.916 803.199 242.726 803.199C242.726 801.087 242.726 816.826 242.726 833.636Z" fill="white"/>
<path d="M248.558 796.795C248.558 801.186 244.998 804.746 240.607 804.746C236.216 804.746 232.656 801.186 232.656 796.795C232.656 792.403 236.216 788.844 240.607 788.844C244.998 788.844 248.558 792.403 248.558 796.795Z" fill="white"/>
<path d="M121.443 971.761C121.443 988.571 121.443 1002.2 121.443 1002.2C104.633 1002.2 91.0059 988.571 91.0059 971.761C91.0059 954.951 104.633 941.324 121.443 941.324C121.443 939.212 121.443 954.951 121.443 971.761Z" fill="white"/>
<path d="M127.275 934.92C127.275 939.311 123.715 942.871 119.324 942.871C114.933 942.871 111.373 939.311 111.373 934.92C111.373 930.528 114.933 926.969 119.324 926.969C123.715 926.969 127.275 930.528 127.275 934.92Z" fill="white"/>
<path d="M131.437 669.792C131.437 686.602 131.437 700.229 131.437 700.229C114.627 700.229 101 686.602 101 669.792C101 652.982 114.627 639.355 131.437 639.355C131.437 637.243 131.437 652.982 131.437 669.792Z" fill="white"/>
<path d="M137.269 632.951C137.269 637.342 133.709 640.902 129.318 640.902C124.927 640.902 121.367 637.342 121.367 632.951C121.367 628.56 124.927 625 129.318 625C133.709 625 137.269 628.56 137.269 632.951Z" fill="white"/>
<path d="M335.882 348.185C324.673 349.804 315.585 351.116 315.585 351.116C316.848 359.081 326.959 364.227 338.169 362.609C349.379 360.99 357.443 353.221 356.18 345.255C357.588 345.052 347.092 346.567 335.882 348.185Z" fill="white"/>
<path d="M298.657 357.844C287.312 357.625 278.115 357.448 278.115 357.448C278.198 349.399 287.462 343.051 298.807 343.269C310.152 343.488 319.283 350.191 319.2 358.24C320.625 358.267 310.003 358.063 298.657 357.844Z" fill="white"/>
<path d="M286.178 379.593C277.401 390.391 270.287 399.146 270.287 399.146C277.856 405.126 291.106 401.22 299.883 390.422C308.659 379.623 309.637 366.02 302.068 360.04C303.171 358.683 294.954 368.794 286.178 379.593Z" fill="white"/>
<path d="M310.191 387.582C309.474 401.448 308.893 412.689 308.893 412.689C318.543 413.262 326.947 402.486 327.664 388.62C328.381 374.754 321.14 363.049 311.49 362.475C311.58 360.733 310.909 373.716 310.191 387.582Z" fill="white"/>
<ellipse cx="319.294" cy="345.927" rx="8.03603" ry="7.88661" transform="rotate(15.1815 319.294 345.927)" fill="white"/>
<path d="M342.183 40.8338C330.973 42.4521 321.886 43.764 321.886 43.764C323.149 51.7297 333.26 56.8754 344.47 55.2571C355.68 53.6389 363.743 45.8695 362.481 37.9037C363.889 37.7004 353.393 39.2156 342.183 40.8338Z" fill="white"/>
<path d="M304.958 50.4923C293.613 50.2736 284.416 50.0962 284.416 50.0962C284.498 42.047 293.763 35.6991 305.108 35.9178C316.453 36.1366 325.583 42.8391 325.501 50.8884C326.926 50.9159 316.303 50.7111 304.958 50.4923Z" fill="white"/>
<path d="M292.478 72.2411C283.702 83.0399 276.588 91.794 276.588 91.794C284.157 97.7747 297.407 93.8689 306.183 83.0701C314.96 72.2714 315.938 58.6689 308.369 52.6882C309.472 51.3315 301.254 61.4424 292.478 72.2411Z" fill="white"/>
<path d="M316.492 80.2306C315.775 94.0966 315.194 105.337 315.194 105.337C324.843 105.91 333.248 95.1341 333.965 81.2681C334.682 67.4021 327.441 55.697 317.791 55.1239C317.881 53.3818 317.209 66.3646 316.492 80.2306Z" fill="white"/>
<ellipse cx="325.595" cy="38.5752" rx="8.03603" ry="7.88661" transform="rotate(15.1815 325.595 38.5752)" fill="white"/>
<path d="M101.183 489.681C89.9733 491.3 80.8859 492.612 80.8859 492.612C82.1487 500.577 92.2599 505.723 103.47 504.105C114.68 502.487 122.743 494.717 121.481 486.751C122.889 486.548 112.393 488.063 101.183 489.681Z" fill="white"/>
<path d="M63.9582 499.34C52.6129 499.121 43.4157 498.944 43.4157 498.944C43.4984 490.895 52.7626 484.547 64.1079 484.765C75.4532 484.984 84.5833 491.687 84.5006 499.736C85.926 499.764 75.3034 499.559 63.9582 499.34Z" fill="white"/>
<path d="M51.4783 521.089C42.7021 531.888 35.5876 540.642 35.5876 540.642C43.1567 546.622 56.4072 542.717 65.1834 531.918C73.9596 521.119 74.9381 507.517 67.369 501.536C68.4716 500.179 60.2545 510.29 51.4783 521.089Z" fill="white"/>
<path d="M75.4921 529.078C74.7749 542.944 74.1935 554.185 74.1935 554.185C83.8434 554.758 92.2475 543.982 92.9647 530.116C93.6819 516.25 86.4406 504.545 76.7908 503.972C76.8809 502.229 76.2093 515.212 75.4921 529.078Z" fill="white"/>
<ellipse cx="84.5946" cy="487.423" rx="8.03603" ry="7.88661" transform="rotate(15.1815 84.5946 487.423)" fill="white"/>
<path d="M411.123 490.803C399.913 492.421 390.825 493.733 390.825 493.733C392.088 501.698 402.199 506.844 413.409 505.226C424.619 503.608 432.683 495.838 431.42 487.872C432.828 487.669 422.333 489.184 411.123 490.803Z" fill="white"/>
<path d="M373.898 500.461C362.552 500.242 353.355 500.065 353.355 500.065C353.438 492.016 362.702 485.668 374.047 485.887C385.393 486.105 394.523 492.808 394.44 500.857C395.865 500.885 385.243 500.68 373.898 500.461Z" fill="white"/>
<path d="M361.418 522.21C352.642 533.009 345.527 541.763 345.527 541.763C353.096 547.743 366.347 543.838 375.123 533.039C383.899 522.24 384.878 508.638 377.308 502.657C378.411 501.3 370.194 511.411 361.418 522.21Z" fill="white"/>
<path d="M385.432 530.199C384.714 544.065 384.133 555.306 384.133 555.306C393.783 555.879 402.187 545.103 402.904 531.237C403.621 517.371 396.38 505.666 386.73 505.093C386.82 503.351 386.149 516.333 385.432 530.199Z" fill="white"/>
<ellipse cx="394.534" cy="488.544" rx="8.03603" ry="7.88661" transform="rotate(15.1815 394.534 488.544)" fill="white"/>
<path d="M243.214 519.714C243.214 536.524 243.214 550.151 243.214 550.151C226.404 550.151 212.777 536.524 212.777 519.714C212.777 502.904 226.404 489.277 243.214 489.277C243.214 487.165 243.214 502.904 243.214 519.714Z" fill="white"/>
<path d="M249.046 482.873C249.046 487.264 245.487 490.824 241.095 490.824C236.704 490.824 233.145 487.264 233.145 482.873C233.145 478.482 236.704 474.922 241.095 474.922C245.487 474.922 249.046 478.482 249.046 482.873Z" fill="white"/>
<path d="M110.166 202.205C98.9557 203.823 89.8683 205.135 89.8683 205.135C91.1311 213.101 101.242 218.246 112.452 216.628C123.662 215.01 131.726 207.241 130.463 199.275C131.871 199.071 121.376 200.587 110.166 202.205Z" fill="white"/>
<path d="M72.9406 211.863C61.5953 211.645 52.3981 211.467 52.3981 211.467C52.4808 203.418 61.7451 197.07 73.0903 197.289C84.4356 197.508 93.5657 204.21 93.483 212.259C94.9084 212.287 84.2859 212.082 72.9406 211.863Z" fill="white"/>
<path d="M60.4607 233.612C51.6845 244.411 44.57 253.165 44.57 253.165C52.1391 259.146 65.3896 255.24 74.1658 244.441C82.942 233.642 83.9205 220.04 76.3514 214.059C77.454 212.703 69.2369 222.813 60.4607 233.612Z" fill="white"/>
<path d="M84.4746 241.602C83.7574 255.468 83.176 266.708 83.176 266.708C92.8258 267.281 101.23 256.505 101.947 242.639C102.664 228.773 95.423 217.068 85.7732 216.495C85.8633 214.753 85.1918 227.736 84.4746 241.602Z" fill="white"/>
<ellipse cx="93.577" cy="199.946" rx="8.03603" ry="7.88661" transform="rotate(15.1815 93.577 199.946)" fill="white"/>
<path d="M414.49 198.834C403.28 200.452 394.193 201.764 394.193 201.764C395.455 209.73 405.567 214.875 416.776 213.257C427.986 211.639 436.05 203.869 434.787 195.904C436.196 195.7 425.7 197.216 414.49 198.834Z" fill="white"/>
<path d="M377.265 208.492C365.92 208.274 356.722 208.096 356.722 208.096C356.805 200.047 366.069 193.699 377.415 193.918C388.76 194.137 397.89 200.839 397.807 208.888C399.233 208.916 388.61 208.711 377.265 208.492Z" fill="white"/>
<path d="M364.785 230.241C356.009 241.04 348.894 249.794 348.894 249.794C356.463 255.775 369.714 251.869 378.49 241.07C387.266 230.271 388.245 216.669 380.676 210.688C381.778 209.331 373.561 219.442 364.785 230.241Z" fill="white"/>
<path d="M388.799 238.231C388.082 252.097 387.5 263.337 387.5 263.337C397.15 263.91 405.554 253.134 406.271 239.268C406.989 225.402 399.747 213.697 390.097 213.124C390.188 211.382 389.516 224.365 388.799 238.231Z" fill="white"/>
<ellipse cx="397.901" cy="196.575" rx="8.03603" ry="7.88661" transform="rotate(15.1815 397.901 196.575)" fill="white"/>
<path d="M242.726 237.636C242.726 254.446 242.726 268.073 242.726 268.073C225.916 268.073 212.289 254.446 212.289 237.636C212.289 220.826 225.916 207.199 242.726 207.199C242.726 205.087 242.726 220.826 242.726 237.636Z" fill="white"/>
<path d="M248.558 200.795C248.558 205.186 244.998 208.746 240.607 208.746C236.216 208.746 232.656 205.186 232.656 200.795C232.656 196.403 236.216 192.844 240.607 192.844C244.998 192.844 248.558 196.403 248.558 200.795Z" fill="white"/>
<path d="M121.443 375.761C121.443 392.571 121.443 406.198 121.443 406.198C104.633 406.198 91.0059 392.571 91.0059 375.761C91.0059 358.951 104.633 345.324 121.443 345.324C121.443 343.212 121.443 358.951 121.443 375.761Z" fill="white"/>
<path d="M127.275 338.92C127.275 343.311 123.715 346.871 119.324 346.871C114.933 346.871 111.373 343.311 111.373 338.92C111.373 334.528 114.933 330.969 119.324 330.969C123.715 330.969 127.275 334.528 127.275 338.92Z" fill="white"/>
<path d="M131.437 73.7922C131.437 90.6021 131.437 104.229 131.437 104.229C114.627 104.229 101 90.6021 101 73.7922C101 56.9822 114.627 43.3551 131.437 43.3551C131.437 41.2431 131.437 56.9822 131.437 73.7922Z" fill="white"/>
<path d="M137.269 36.9509C137.269 41.3421 133.709 44.9018 129.318 44.9018C124.927 44.9018 121.367 41.3421 121.367 36.9509C121.367 32.5597 124.927 29 129.318 29C133.709 29 137.269 32.5597 137.269 36.9509Z" fill="white"/>
<defs>
<linearGradient id="paint0_linear_354_3593" x1="234" y1="0" x2="234" y2="1177" gradientUnits="userSpaceOnUse">
<stop stop-color="#66B0EF"/>
<stop offset="0.535" stop-color="#B4D99B"/>
<stop offset="1" stop-color="#66B0EF"/>
</linearGradient>
</defs>
</svg>
