<svg width="1191" height="586" viewBox="0 0 1191 586" fill="none" xmlns="http://www.w3.org/2000/svg">
<path d="M0 30C0 13.4315 13.4315 0 30 0H1160.5C1177.07 0 1190.5 13.4315 1190.5 30V555C1190.5 571.569 1177.07 585 1160.5 585H30C13.4314 585 0 571.569 0 555V30Z" fill="url(#paint0_linear_352_3179)"/>
<path d="M80 14H165V585H80V14Z" fill="white"/>
<path d="M211 0H283V349C283 360.046 274.046 369 263 369H231C219.954 369 211 360.046 211 349V0Z" fill="white"/>
<path d="M317 257C317 243.193 328.193 232 342 232H386C399.807 232 411 243.193 411 257V584H317V257Z" fill="white"/>
<path d="M985 169C985 155.193 996.193 144 1010 144H1080C1093.81 144 1105 155.193 1105 169V585H985V169Z" fill="white"/>
<path d="M476 0H535V475C535 483.284 528.284 490 520 490H491C482.716 490 476 483.284 476 475V0Z" fill="white"/>
<path d="M590 13H687V584H590V13Z" fill="white"/>
<path d="M740 306C740 297.716 746.716 291 755 291H778C786.284 291 793 297.716 793 306V584H740V306Z" fill="white"/>
<path d="M842 0H936V429C936 442.807 924.807 454 911 454H867C853.193 454 842 442.807 842 429V0Z" fill="white"/>
<path d="M99.4446 89C110.132 89 120.602 89 118.796 89C118.796 78.5066 110.132 70 99.4446 70C88.7573 70 80.0936 78.5066 80.0936 89C78.9326 89 88.7573 89 99.4446 89Z" fill="#434343"/>
<path d="M145.445 118C156.132 118 166.602 118 164.796 118C164.796 107.507 156.132 99 145.445 99C134.757 99 126.094 107.507 126.094 118C124.933 118 134.757 118 145.445 118Z" fill="#434343"/>
<path d="M99.4446 146C110.132 146 120.602 146 118.796 146C118.796 135.507 110.132 127 99.4446 127C88.7573 127 80.0936 135.507 80.0936 146C78.9326 146 88.7573 146 99.4446 146Z" fill="#434343"/>
<path d="M145.445 175C156.132 175 166.602 175 164.796 175C164.796 164.507 156.132 156 145.445 156C134.757 156 126.094 164.507 126.094 175C124.933 175 134.757 175 145.445 175Z" fill="#434343"/>
<path d="M99.4446 209C110.132 209 120.602 209 118.796 209C118.796 198.507 110.132 190 99.4446 190C88.7573 190 80.0936 198.507 80.0936 209C78.9326 209 88.7573 209 99.4446 209Z" fill="#434343"/>
<path d="M145.445 241C156.132 241 166.602 241 164.796 241C164.796 230.507 156.132 222 145.445 222C134.757 222 126.094 230.507 126.094 241C124.933 241 134.757 241 145.445 241Z" fill="#434343"/>
<path d="M609.445 78C620.132 78 630.602 78 628.796 78C628.796 67.5066 620.132 59 609.445 59C598.757 59 590.094 67.5066 590.094 78C588.933 78 598.757 78 609.445 78Z" fill="#434343"/>
<path d="M667.445 78C678.132 78 688.602 78 686.796 78C686.796 67.5066 678.132 59 667.445 59C656.757 59 648.094 67.5066 648.094 78C646.933 78 656.757 78 667.445 78Z" fill="#434343"/>
<path d="M638.445 153C649.132 153 659.602 153 657.796 153C657.796 142.507 649.132 134 638.445 134C627.757 134 619.094 142.507 619.094 153C617.933 153 627.757 153 638.445 153Z" fill="#434343"/>
<path d="M638.445 264C649.132 264 659.602 264 657.796 264C657.796 253.507 649.132 245 638.445 245C627.757 245 619.094 253.507 619.094 264C617.933 264 627.757 264 638.445 264Z" fill="#434343"/>
<path d="M638.445 353C649.132 353 659.602 353 657.796 353C657.796 342.507 649.132 334 638.445 334C627.757 334 619.094 342.507 619.094 353C617.933 353 627.757 353 638.445 353Z" fill="#434343"/>
<path d="M638.445 447C649.132 447 659.602 447 657.796 447C657.796 436.507 649.132 428 638.445 428C627.757 428 619.094 436.507 619.094 447C617.933 447 627.757 447 638.445 447Z" fill="#434343"/>
<path d="M638.445 546C649.132 546 659.602 546 657.796 546C657.796 535.507 649.132 527 638.445 527C627.757 527 619.094 535.507 619.094 546C617.933 546 627.757 546 638.445 546Z" fill="#434343"/>
<path d="M667.445 126C678.132 126 688.602 126 686.796 126C686.796 115.507 678.132 107 667.445 107C656.757 107 648.094 115.507 648.094 126C646.933 126 656.757 126 667.445 126Z" fill="#434343"/>
<path d="M667.445 176C678.132 176 688.602 176 686.796 176C686.796 165.507 678.132 157 667.445 157C656.757 157 648.094 165.507 648.094 176C646.933 176 656.757 176 667.445 176Z" fill="#434343"/>
<path d="M667.445 231C678.132 231 688.602 231 686.796 231C686.796 220.507 678.132 212 667.445 212C656.757 212 648.094 220.507 648.094 231C646.933 231 656.757 231 667.445 231Z" fill="#434343"/>
<path d="M669.445 287C680.132 287 690.602 287 688.796 287C688.796 276.507 680.132 268 669.445 268C658.757 268 650.094 276.507 650.094 287C648.933 287 658.757 287 669.445 287Z" fill="#434343"/>
<path d="M866.57 66C853.142 66 839.987 66 842.257 66C842.257 79.2548 853.142 90 866.57 90C879.997 90 890.882 79.2548 890.882 66C892.341 66 879.997 66 866.57 66Z" fill="#434343"/>
<path d="M911.57 107C898.142 107 884.987 107 887.257 107C887.257 120.255 898.142 131 911.57 131C924.997 131 935.882 120.255 935.882 107C937.341 107 924.997 107 911.57 107Z" fill="#434343"/>
<path d="M866.57 152C853.142 152 839.987 152 842.257 152C842.257 165.255 853.142 176 866.57 176C879.997 176 890.882 165.255 890.882 152C892.341 152 879.997 152 866.57 152Z" fill="#434343"/>
<path d="M911.57 193C898.142 193 884.987 193 887.257 193C887.257 206.255 898.142 217 911.57 217C924.997 217 935.882 206.255 935.882 193C937.341 193 924.997 193 911.57 193Z" fill="#434343"/>
<path d="M869.57 234C856.142 234 842.987 234 845.257 234C845.257 247.255 856.142 258 869.57 258C882.997 258 893.882 247.255 893.882 234C895.341 234 882.997 234 869.57 234Z" fill="#434343"/>
<path d="M911.57 278C898.142 278 884.987 278 887.257 278C887.257 291.255 898.142 302 911.57 302C924.997 302 935.882 291.255 935.882 278C937.341 278 924.997 278 911.57 278Z" fill="#434343"/>
<path d="M869.57 326C856.142 326 842.987 326 845.257 326C845.257 339.255 856.142 350 869.57 350C882.997 350 893.882 339.255 893.882 326C895.341 326 882.997 326 869.57 326Z" fill="#434343"/>
<path d="M911.57 374C898.142 374 884.987 374 887.257 374C887.257 387.255 898.142 398 911.57 398C924.997 398 935.882 387.255 935.882 374C937.341 374 924.997 374 911.57 374Z" fill="#434343"/>
<path d="M866.57 414C853.142 414 839.987 414 842.257 414C842.257 427.255 853.142 438 866.57 438C879.997 438 890.882 427.255 890.882 414C892.341 414 879.997 414 866.57 414Z" fill="#434343"/>
<path d="M667.445 326C678.132 326 688.602 326 686.796 326C686.796 315.507 678.132 307 667.445 307C656.757 307 648.094 315.507 648.094 326C646.933 326 656.757 326 667.445 326Z" fill="#434343"/>
<path d="M667.445 421C678.132 421 688.602 421 686.796 421C686.796 410.507 678.132 402 667.445 402C656.757 402 648.094 410.507 648.094 421C646.933 421 656.757 421 667.445 421Z" fill="#434343"/>
<path d="M667.445 477C678.132 477 688.602 477 686.796 477C686.796 466.507 678.132 458 667.445 458C656.757 458 648.094 466.507 648.094 477C646.933 477 656.757 477 667.445 477Z" fill="#434343"/>
<path d="M667.445 519C678.132 519 688.602 519 686.796 519C686.796 508.507 678.132 500 667.445 500C656.757 500 648.094 508.507 648.094 519C646.933 519 656.757 519 667.445 519Z" fill="#434343"/>
<path d="M667.445 386C678.132 386 688.602 386 686.796 386C686.796 375.507 678.132 367 667.445 367C656.757 367 648.094 375.507 648.094 386C646.933 386 656.757 386 667.445 386Z" fill="#434343"/>
<path d="M609.445 126C620.132 126 630.602 126 628.796 126C628.796 115.507 620.132 107 609.445 107C598.757 107 590.094 115.507 590.094 126C588.933 126 598.757 126 609.445 126Z" fill="#434343"/>
<path d="M609.445 176C620.132 176 630.602 176 628.796 176C628.796 165.507 620.132 157 609.445 157C598.757 157 590.094 165.507 590.094 176C588.933 176 598.757 176 609.445 176Z" fill="#434343"/>
<path d="M609.445 230C620.132 230 630.602 230 628.796 230C628.796 219.507 620.132 211 609.445 211C598.757 211 590.094 219.507 590.094 230C588.933 230 598.757 230 609.445 230Z" fill="#434343"/>
<path d="M609.445 287C620.132 287 630.602 287 628.796 287C628.796 276.507 620.132 268 609.445 268C598.757 268 590.094 276.507 590.094 287C588.933 287 598.757 287 609.445 287Z" fill="#434343"/>
<path d="M609.445 326C620.132 326 630.602 326 628.796 326C628.796 315.507 620.132 307 609.445 307C598.757 307 590.094 315.507 590.094 326C588.933 326 598.757 326 609.445 326Z" fill="#434343"/>
<path d="M609.445 421C620.132 421 630.602 421 628.796 421C628.796 410.507 620.132 402 609.445 402C598.757 402 590.094 410.507 590.094 421C588.933 421 598.757 421 609.445 421Z" fill="#434343"/>
<path d="M609.445 478C620.132 478 630.602 478 628.796 478C628.796 467.507 620.132 459 609.445 459C598.757 459 590.094 467.507 590.094 478C588.933 478 598.757 478 609.445 478Z" fill="#434343"/>
<path d="M609.445 516C620.132 516 630.602 516 628.796 516C628.796 505.507 620.132 497 609.445 497C598.757 497 590.094 505.507 590.094 516C588.933 516 598.757 516 609.445 516Z" fill="#434343"/>
<path d="M612.445 575C623.132 575 633.602 575 631.796 575C631.796 564.507 623.132 556 612.445 556C601.757 556 593.094 564.507 593.094 575C591.933 575 601.757 575 612.445 575Z" fill="#434343"/>
<path d="M664.445 575C675.132 575 685.602 575 683.796 575C683.796 564.507 675.132 556 664.445 556C653.757 556 645.094 564.507 645.094 575C643.933 575 653.757 575 664.445 575Z" fill="#434343"/>
<path d="M609.445 386C620.132 386 630.602 386 628.796 386C628.796 375.507 620.132 367 609.445 367C598.757 367 590.094 375.507 590.094 386C588.933 386 598.757 386 609.445 386Z" fill="#434343"/>
<path d="M238.578 70C223.506 70 208.741 70 211.288 70C211.288 84.9117 223.506 97 238.578 97C253.65 97 265.868 84.9117 265.868 70C267.505 70 253.65 70 238.578 70Z" fill="#434343"/>
<path d="M255.578 110C240.506 110 225.741 110 228.288 110C228.288 124.912 240.506 137 255.578 137C270.65 137 282.868 124.912 282.868 110C284.505 110 270.65 110 255.578 110Z" fill="#434343"/>
<path d="M535 85.5611C535 73.7777 535 62.2338 535 64.2254C523.402 64.2254 514 73.7777 514 85.5611C514 97.3445 523.402 106.897 535 106.897C535 108.177 535 97.3445 535 85.5611Z" fill="#434343"/>
<path d="M535 213.567C535 200.687 535 188.07 535 190.246C522.297 190.246 512 200.687 512 213.567C512 226.446 522.297 236.887 535 236.887C535 238.286 535 226.446 535 213.567Z" fill="#434343"/>
<path d="M535 363.074C535 348.824 535 334.864 535 337.273C520.641 337.273 509 348.824 509 363.074C509 377.324 520.641 388.875 535 388.875C535 390.423 535 377.324 535 363.074Z" fill="#434343"/>
<path d="M476 149.439C476 161.222 476 172.766 476 170.775C488.15 170.775 498 161.222 498 149.439C498 137.655 488.15 128.103 476 128.103C476 126.823 476 137.655 476 149.439Z" fill="#434343"/>
<path d="M476 282.929C476 296.631 476 310.054 476 307.738C489.807 307.738 501 296.631 501 282.929C501 269.227 489.807 258.12 476 258.12C476 256.632 476 269.227 476 282.929Z" fill="#434343"/>
<path d="M476 443.935C476 456.54 476 468.889 476 466.759C488.703 466.759 499 456.54 499 443.935C499 431.329 488.703 421.11 476 421.11C476 419.741 476 431.329 476 443.935Z" fill="#434343"/>
<path d="M238.578 156C223.506 156 208.741 156 211.288 156C211.288 170.912 223.506 183 238.578 183C253.65 183 265.868 170.912 265.868 156C267.505 156 253.65 156 238.578 156Z" fill="#434343"/>
<path d="M255.578 196C240.506 196 225.741 196 228.288 196C228.288 210.912 240.506 223 255.578 223C270.65 223 282.868 210.912 282.868 196C284.505 196 270.65 196 255.578 196Z" fill="#434343"/>
<path d="M238.578 242C223.506 242 208.741 242 211.288 242C211.288 256.912 223.506 269 238.578 269C253.65 269 265.868 256.912 265.868 242C267.505 242 253.65 242 238.578 242Z" fill="#434343"/>
<path d="M255.578 282C240.506 282 225.741 282 228.288 282C228.288 296.912 240.506 309 255.578 309C270.65 309 282.868 296.912 282.868 282C284.505 282 270.65 282 255.578 282Z" fill="#434343"/>
<path d="M238.578 322C223.506 322 208.741 322 211.288 322C211.288 336.912 223.506 349 238.578 349C253.65 349 265.868 336.912 265.868 322C267.505 322 253.65 322 238.578 322Z" fill="#434343"/>
<path d="M99.4446 272C110.132 272 120.602 272 118.796 272C118.796 261.507 110.132 253 99.4446 253C88.7573 253 80.0936 261.507 80.0936 272C78.9326 272 88.7573 272 99.4446 272Z" fill="#434343"/>
<path d="M145.445 307C156.132 307 166.602 307 164.796 307C164.796 296.507 156.132 288 145.445 288C134.757 288 126.094 296.507 126.094 307C124.933 307 134.757 307 145.445 307Z" fill="#434343"/>
<path d="M99.4446 335C110.132 335 120.602 335 118.796 335C118.796 324.507 110.132 316 99.4446 316C88.7573 316 80.0936 324.507 80.0936 335C78.9326 335 88.7573 335 99.4446 335Z" fill="#434343"/>
<path d="M145.445 373C156.132 373 166.602 373 164.796 373C164.796 362.507 156.132 354 145.445 354C134.757 354 126.094 362.507 126.094 373C124.933 373 134.757 373 145.445 373Z" fill="#434343"/>
<path d="M1004.44 176C1015.13 176 1025.6 176 1023.8 176C1023.8 165.507 1015.13 157 1004.44 157C993.757 157 985.094 165.507 985.094 176C983.933 176 993.757 176 1004.44 176Z" fill="#434343"/>
<path d="M1085.44 195C1096.13 195 1106.6 195 1104.8 195C1104.8 184.507 1096.13 176 1085.44 176C1074.76 176 1066.09 184.507 1066.09 195C1064.93 195 1074.76 195 1085.44 195Z" fill="#434343"/>
<path d="M1004.44 227C1015.13 227 1025.6 227 1023.8 227C1023.8 216.507 1015.13 208 1004.44 208C993.757 208 985.094 216.507 985.094 227C983.933 227 993.757 227 1004.44 227Z" fill="#434343"/>
<path d="M1085.44 258C1096.13 258 1106.6 258 1104.8 258C1104.8 247.507 1096.13 239 1085.44 239C1074.76 239 1066.09 247.507 1066.09 258C1064.93 258 1074.76 258 1085.44 258Z" fill="#434343"/>
<path d="M1021.44 328C1032.13 328 1042.6 328 1040.8 328C1040.8 317.507 1032.13 309 1021.44 309C1010.76 309 1002.09 317.507 1002.09 328C1000.93 328 1010.76 328 1021.44 328Z" fill="#434343"/>
<path d="M1062.44 227C1073.13 227 1083.6 227 1081.8 227C1081.8 216.507 1073.13 208 1062.44 208C1051.76 208 1043.09 216.507 1043.09 227C1041.93 227 1051.76 227 1062.44 227Z" fill="#434343"/>
<path d="M1065.44 435C1076.13 435 1086.6 435 1084.8 435C1084.8 424.507 1076.13 416 1065.44 416C1054.76 416 1046.09 424.507 1046.09 435C1044.93 435 1054.76 435 1065.44 435Z" fill="#434343"/>
<path d="M1029.44 543C1040.13 543 1050.6 543 1048.8 543C1048.8 532.507 1040.13 524 1029.44 524C1018.76 524 1010.09 532.507 1010.09 543C1008.93 543 1018.76 543 1029.44 543Z" fill="#434343"/>
<path d="M1068.44 583C1079.13 583 1089.6 583 1087.8 583C1087.8 572.507 1079.13 564 1068.44 564C1057.76 564 1049.09 572.507 1049.09 583C1047.93 583 1057.76 583 1068.44 583Z" fill="#434343"/>
<path d="M1004.44 291C1015.13 291 1025.6 291 1023.8 291C1023.8 280.507 1015.13 272 1004.44 272C993.757 272 985.094 280.507 985.094 291C983.933 291 993.757 291 1004.44 291Z" fill="#434343"/>
<path d="M1085.44 326C1096.13 326 1106.6 326 1104.8 326C1104.8 315.507 1096.13 307 1085.44 307C1074.76 307 1066.09 315.507 1066.09 326C1064.93 326 1074.76 326 1085.44 326Z" fill="#434343"/>
<path d="M1004.44 365C1015.13 365 1025.6 365 1023.8 365C1023.8 354.507 1015.13 346 1004.44 346C993.757 346 985.094 354.507 985.094 365C983.933 365 993.757 365 1004.44 365Z" fill="#434343"/>
<path d="M1085.44 398C1096.13 398 1106.6 398 1104.8 398C1104.8 387.507 1096.13 379 1085.44 379C1074.76 379 1066.09 387.507 1066.09 398C1064.93 398 1074.76 398 1085.44 398Z" fill="#434343"/>
<path d="M1004.44 435C1015.13 435 1025.6 435 1023.8 435C1023.8 424.507 1015.13 416 1004.44 416C993.757 416 985.094 424.507 985.094 435C983.933 435 993.757 435 1004.44 435Z" fill="#434343"/>
<path d="M1085.44 466C1096.13 466 1106.6 466 1104.8 466C1104.8 455.507 1096.13 447 1085.44 447C1074.76 447 1066.09 455.507 1066.09 466C1064.93 466 1074.76 466 1085.44 466Z" fill="#434343"/>
<path d="M1004.44 510C1015.13 510 1025.6 510 1023.8 510C1023.8 499.507 1015.13 491 1004.44 491C993.757 491 985.094 499.507 985.094 510C983.933 510 993.757 510 1004.44 510Z" fill="#434343"/>
<path d="M1085.44 539C1096.13 539 1106.6 539 1104.8 539C1104.8 528.507 1096.13 520 1085.44 520C1074.76 520 1066.09 528.507 1066.09 539C1064.93 539 1074.76 539 1085.44 539Z" fill="#434343"/>
<path d="M1004.44 574C1015.13 574 1025.6 574 1023.8 574C1023.8 563.507 1015.13 555 1004.44 555C993.757 555 985.094 563.507 985.094 574C983.933 574 993.757 574 1004.44 574Z" fill="#434343"/>
<path d="M99.4446 398C110.132 398 120.602 398 118.796 398C118.796 387.507 110.132 379 99.4446 379C88.7573 379 80.0936 387.507 80.0936 398C78.9326 398 88.7573 398 99.4446 398Z" fill="#434343"/>
<path d="M145.445 439C156.132 439 166.602 439 164.796 439C164.796 428.507 156.132 420 145.445 420C134.757 420 126.094 428.507 126.094 439C124.933 439 134.757 439 145.445 439Z" fill="#434343"/>
<path d="M341.057 250C330.096 250 319.357 250 321.21 250C321.21 260.493 330.096 269 341.057 269C352.018 269 360.904 260.493 360.904 250C362.095 250 352.018 250 341.057 250Z" fill="#434343"/>
<path d="M391.057 283C380.096 283 369.357 283 371.21 283C371.21 293.493 380.096 302 391.057 302C402.018 302 410.904 293.493 410.904 283C412.095 283 402.018 283 391.057 283Z" fill="#434343"/>
<path d="M364.057 309C353.096 309 342.357 309 344.21 309C344.21 319.493 353.096 328 364.057 328C375.018 328 383.904 319.493 383.904 309C385.095 309 375.018 309 364.057 309Z" fill="#434343"/>
<path d="M391.057 349C380.096 349 369.357 349 371.21 349C371.21 359.493 380.096 368 391.057 368C402.018 368 410.904 359.493 410.904 349C412.095 349 402.018 349 391.057 349Z" fill="#434343"/>
<path d="M774 318.943C774 329.904 774 340.643 774 338.79C784.493 338.79 793 329.904 793 318.943C793 307.982 784.493 299.096 774 299.096C774 297.905 774 307.982 774 318.943Z" fill="#434343"/>
<path d="M774 380.943C774 391.904 774 402.643 774 400.79C784.493 400.79 793 391.904 793 380.943C793 369.982 784.493 361.096 774 361.096C774 359.905 774 369.982 774 380.943Z" fill="#434343"/>
<path d="M774 447.943C774 458.904 774 469.643 774 467.79C784.493 467.79 793 458.904 793 447.943C793 436.982 784.493 428.096 774 428.096C774 426.905 774 436.982 774 447.943Z" fill="#434343"/>
<path d="M774 503.943C774 514.904 774 525.643 774 523.79C784.493 523.79 793 514.904 793 503.943C793 492.982 784.493 484.096 774 484.096C774 482.905 774 492.982 774 503.943Z" fill="#434343"/>
<path d="M774 559.943C774 570.904 774 581.643 774 579.79C784.493 579.79 793 570.904 793 559.943C793 548.982 784.493 540.096 774 540.096C774 538.905 774 548.982 774 559.943Z" fill="#434343"/>
<path d="M759 339.057C759 328.096 759 317.357 759 319.21C748.507 319.21 740 328.096 740 339.057C740 350.018 748.507 358.904 759 358.904C759 360.095 759 350.018 759 339.057Z" fill="#434343"/>
<path d="M759 401.057C759 390.096 759 379.357 759 381.21C748.507 381.21 740 390.096 740 401.057C740 412.018 748.507 420.904 759 420.904C759 422.095 759 412.018 759 401.057Z" fill="#434343"/>
<path d="M759 458.057C759 447.096 759 436.357 759 438.21C748.507 438.21 740 447.096 740 458.057C740 469.018 748.507 477.904 759 477.904C759 479.095 759 469.018 759 458.057Z" fill="#434343"/>
<path d="M759 524.057C759 513.096 759 502.357 759 504.21C748.507 504.21 740 513.096 740 524.057C740 535.018 748.507 543.904 759 543.904C759 545.095 759 535.018 759 524.057Z" fill="#434343"/>
<path d="M759 576.055C759 565.093 759 554.355 759 556.208C748.507 556.208 740 565.093 740 576.055C743 584.5 748.507 584.5 759 584.5C759 585.691 759 587.016 759 576.055Z" fill="#434343"/>
<path d="M337.057 379C326.096 379 315.357 379 317.21 379C317.21 389.493 326.096 398 337.057 398C348.018 398 356.904 389.493 356.904 379C358.095 379 348.018 379 337.057 379Z" fill="#434343"/>
<path d="M364.057 408C353.096 408 342.357 408 344.21 408C344.21 418.493 353.096 427 364.057 427C375.018 427 383.904 418.493 383.904 408C385.095 408 375.018 408 364.057 408Z" fill="#434343"/>
<path d="M337.057 442C326.096 442 315.357 442 317.21 442C317.21 452.493 326.096 461 337.057 461C348.018 461 356.904 452.493 356.904 442C358.095 442 348.018 442 337.057 442Z" fill="#434343"/>
<path d="M391.057 477C380.096 477 369.357 477 371.21 477C371.21 487.493 380.096 496 391.057 496C402.018 496 410.904 487.493 410.904 477C412.095 477 402.018 477 391.057 477Z" fill="#434343"/>
<path d="M364.057 503C353.096 503 342.357 503 344.21 503C344.21 513.493 353.096 522 364.057 522C375.018 522 383.904 513.493 383.904 503C385.095 503 375.018 503 364.057 503Z" fill="#434343"/>
<path d="M391.057 538C380.096 538 369.357 538 371.21 538C371.21 548.493 380.096 557 391.057 557C402.018 557 410.904 548.493 410.904 538C412.095 538 402.018 538 391.057 538Z" fill="#434343"/>
<path d="M337.057 562C326.096 562 315.357 562 317.21 562C317.21 572.493 326.096 581 337.057 581C348.018 581 356.904 572.493 356.904 562C358.095 562 348.018 562 337.057 562Z" fill="#434343"/>
<path d="M99.4446 461C110.132 461 120.602 461 118.796 461C118.796 450.507 110.132 442 99.4446 442C88.7573 442 80.0936 450.507 80.0936 461C78.9326 461 88.7573 461 99.4446 461Z" fill="#434343"/>
<path d="M145.445 505C156.132 505 166.602 505 164.796 505C164.796 494.507 156.132 486 145.445 486C134.757 486 126.094 494.507 126.094 505C124.933 505 134.757 505 145.445 505Z" fill="#434343"/>
<path d="M99.4446 524C110.132 524 120.602 524 118.796 524C118.796 513.507 110.132 505 99.4446 505C88.7573 505 80.0936 513.507 80.0936 524C78.9326 524 88.7573 524 99.4446 524Z" fill="#434343"/>
<path d="M145.445 571C156.132 571 166.602 571 164.796 571C164.796 560.507 156.132 552 145.445 552C134.757 552 126.094 560.507 126.094 571C124.933 571 134.757 571 145.445 571Z" fill="#434343"/>
<defs>
<linearGradient id="paint0_linear_352_3179" x1="595.25" y1="0" x2="595.25" y2="585" gradientUnits="userSpaceOnUse">
<stop offset="0.575" stop-color="#66B0EF"/>
<stop offset="1" stop-color="#AFD6A0"/>
</linearGradient>
</defs>
</svg>
