<svg width="1191" height="586" viewBox="0 0 1191 586" fill="none" xmlns="http://www.w3.org/2000/svg">
<path d="M0 30C0 13.4315 13.4315 0 30 0H1160.5C1177.07 0 1190.5 13.4315 1190.5 30V555C1190.5 571.569 1177.07 585 1160.5 585H30C13.4314 585 0 571.569 0 555V30Z" fill="url(#paint0_linear_352_3298)"/>
<path d="M80 14H165V585H80V14Z" fill="white"/>
<path d="M211 0H283V349C283 360.046 274.046 369 263 369H231C219.954 369 211 360.046 211 349V0Z" fill="white"/>
<path d="M317 257C317 243.193 328.193 232 342 232H386C399.807 232 411 243.193 411 257V584H317V257Z" fill="white"/>
<path d="M985 169C985 155.193 996.193 144 1010 144H1080C1093.81 144 1105 155.193 1105 169V585H985V169Z" fill="white"/>
<path d="M476 0H535V475C535 483.284 528.284 490 520 490H491C482.716 490 476 483.284 476 475V0Z" fill="white"/>
<path d="M590 13H687V584H590V13Z" fill="white"/>
<path d="M740 306C740 297.716 746.716 291 755 291H778C786.284 291 793 297.716 793 306V584H740V306Z" fill="white"/>
<path d="M842 0H936V429C936 442.807 924.807 454 911 454H867C853.193 454 842 442.807 842 429V0Z" fill="white"/>
<path d="M99.5554 70C88.8682 70 78.3981 70 80.2044 70C80.2044 80.4934 88.8682 89 99.5554 89C110.243 89 118.906 80.4934 118.906 70C120.067 70 110.243 70 99.5554 70Z" fill="#434343"/>
<path d="M145.555 99C134.868 99 124.398 99 126.204 99C126.204 109.493 134.868 118 145.555 118C156.243 118 164.906 109.493 164.906 99C166.067 99 156.243 99 145.555 99Z" fill="#434343"/>
<path d="M99.5554 127C88.8682 127 78.3981 127 80.2044 127C80.2044 137.493 88.8682 146 99.5554 146C110.243 146 118.906 137.493 118.906 127C120.067 127 110.243 127 99.5554 127Z" fill="#434343"/>
<path d="M145.555 156C134.868 156 124.398 156 126.204 156C126.204 166.493 134.868 175 145.555 175C156.243 175 164.906 166.493 164.906 156C166.067 156 156.243 156 145.555 156Z" fill="#434343"/>
<path d="M99.5554 190C88.8682 190 78.3981 190 80.2044 190C80.2044 200.493 88.8682 209 99.5554 209C110.243 209 118.906 200.493 118.906 190C120.067 190 110.243 190 99.5554 190Z" fill="#434343"/>
<path d="M145.555 222C134.868 222 124.398 222 126.204 222C126.204 232.493 134.868 241 145.555 241C156.243 241 164.906 232.493 164.906 222C166.067 222 156.243 222 145.555 222Z" fill="#434343"/>
<path d="M609.555 59C598.868 59 588.398 59 590.204 59C590.204 69.4934 598.868 78 609.555 78C620.243 78 628.906 69.4934 628.906 59C630.067 59 620.243 59 609.555 59Z" fill="#434343"/>
<path d="M667.555 59C656.868 59 646.398 59 648.204 59C648.204 69.4934 656.868 78 667.555 78C678.243 78 686.906 69.4934 686.906 59C688.067 59 678.243 59 667.555 59Z" fill="#434343"/>
<path d="M638.555 134C627.868 134 617.398 134 619.204 134C619.204 144.493 627.868 153 638.555 153C649.243 153 657.906 144.493 657.906 134C659.067 134 649.243 134 638.555 134Z" fill="#434343"/>
<path d="M638.555 245C627.868 245 617.398 245 619.204 245C619.204 255.493 627.868 264 638.555 264C649.243 264 657.906 255.493 657.906 245C659.067 245 649.243 245 638.555 245Z" fill="#434343"/>
<path d="M638.555 334C627.868 334 617.398 334 619.204 334C619.204 344.493 627.868 353 638.555 353C649.243 353 657.906 344.493 657.906 334C659.067 334 649.243 334 638.555 334Z" fill="#434343"/>
<path d="M638.555 428C627.868 428 617.398 428 619.204 428C619.204 438.493 627.868 447 638.555 447C649.243 447 657.906 438.493 657.906 428C659.067 428 649.243 428 638.555 428Z" fill="#434343"/>
<path d="M638.555 527C627.868 527 617.398 527 619.204 527C619.204 537.493 627.868 546 638.555 546C649.243 546 657.906 537.493 657.906 527C659.067 527 649.243 527 638.555 527Z" fill="#434343"/>
<path d="M667.555 107C656.868 107 646.398 107 648.204 107C648.204 117.493 656.868 126 667.555 126C678.243 126 686.906 117.493 686.906 107C688.067 107 678.243 107 667.555 107Z" fill="#434343"/>
<path d="M667.555 157C656.868 157 646.398 157 648.204 157C648.204 167.493 656.868 176 667.555 176C678.243 176 686.906 167.493 686.906 157C688.067 157 678.243 157 667.555 157Z" fill="#434343"/>
<path d="M667.555 212C656.868 212 646.398 212 648.204 212C648.204 222.493 656.868 231 667.555 231C678.243 231 686.906 222.493 686.906 212C688.067 212 678.243 212 667.555 212Z" fill="#434343"/>
<path d="M669.555 268C658.868 268 648.398 268 650.204 268C650.204 278.493 658.868 287 669.555 287C680.243 287 688.906 278.493 688.906 268C690.067 268 680.243 268 669.555 268Z" fill="#434343"/>
<path d="M866.43 90C879.858 90 893.013 90 890.743 90C890.743 76.7452 879.858 66 866.43 66C853.003 66 842.118 76.7452 842.118 90C840.659 90 853.003 90 866.43 90Z" fill="#434343"/>
<path d="M911.43 131C924.858 131 938.013 131 935.743 131C935.743 117.745 924.858 107 911.43 107C898.003 107 887.118 117.745 887.118 131C885.659 131 898.003 131 911.43 131Z" fill="#434343"/>
<path d="M866.43 176C879.858 176 893.013 176 890.743 176C890.743 162.745 879.858 152 866.43 152C853.003 152 842.118 162.745 842.118 176C840.659 176 853.003 176 866.43 176Z" fill="#434343"/>
<path d="M911.43 217C924.858 217 938.013 217 935.743 217C935.743 203.745 924.858 193 911.43 193C898.003 193 887.118 203.745 887.118 217C885.659 217 898.003 217 911.43 217Z" fill="#434343"/>
<path d="M869.43 258C882.858 258 896.013 258 893.743 258C893.743 244.745 882.858 234 869.43 234C856.003 234 845.118 244.745 845.118 258C843.659 258 856.003 258 869.43 258Z" fill="#434343"/>
<path d="M911.43 302C924.858 302 938.013 302 935.743 302C935.743 288.745 924.858 278 911.43 278C898.003 278 887.118 288.745 887.118 302C885.659 302 898.003 302 911.43 302Z" fill="#434343"/>
<path d="M869.43 350C882.858 350 896.013 350 893.743 350C893.743 336.745 882.858 326 869.43 326C856.003 326 845.118 336.745 845.118 350C843.659 350 856.003 350 869.43 350Z" fill="#434343"/>
<path d="M911.43 398C924.858 398 938.013 398 935.743 398C935.743 384.745 924.858 374 911.43 374C898.003 374 887.118 384.745 887.118 398C885.659 398 898.003 398 911.43 398Z" fill="#434343"/>
<path d="M866.43 438C879.858 438 893.013 438 890.743 438C890.743 424.745 879.858 414 866.43 414C853.003 414 842.118 424.745 842.118 438C840.659 438 853.003 438 866.43 438Z" fill="#434343"/>
<path d="M667.555 307C656.868 307 646.398 307 648.204 307C648.204 317.493 656.868 326 667.555 326C678.243 326 686.906 317.493 686.906 307C688.067 307 678.243 307 667.555 307Z" fill="#434343"/>
<path d="M667.555 402C656.868 402 646.398 402 648.204 402C648.204 412.493 656.868 421 667.555 421C678.243 421 686.906 412.493 686.906 402C688.067 402 678.243 402 667.555 402Z" fill="#434343"/>
<path d="M667.555 458C656.868 458 646.398 458 648.204 458C648.204 468.493 656.868 477 667.555 477C678.243 477 686.906 468.493 686.906 458C688.067 458 678.243 458 667.555 458Z" fill="#434343"/>
<path d="M667.555 500C656.868 500 646.398 500 648.204 500C648.204 510.493 656.868 519 667.555 519C678.243 519 686.906 510.493 686.906 500C688.067 500 678.243 500 667.555 500Z" fill="#434343"/>
<path d="M667.555 367C656.868 367 646.398 367 648.204 367C648.204 377.493 656.868 386 667.555 386C678.243 386 686.906 377.493 686.906 367C688.067 367 678.243 367 667.555 367Z" fill="#434343"/>
<path d="M609.555 107C598.868 107 588.398 107 590.204 107C590.204 117.493 598.868 126 609.555 126C620.243 126 628.906 117.493 628.906 107C630.067 107 620.243 107 609.555 107Z" fill="#434343"/>
<path d="M609.555 157C598.868 157 588.398 157 590.204 157C590.204 167.493 598.868 176 609.555 176C620.243 176 628.906 167.493 628.906 157C630.067 157 620.243 157 609.555 157Z" fill="#434343"/>
<path d="M609.555 211C598.868 211 588.398 211 590.204 211C590.204 221.493 598.868 230 609.555 230C620.243 230 628.906 221.493 628.906 211C630.067 211 620.243 211 609.555 211Z" fill="#434343"/>
<path d="M609.555 268C598.868 268 588.398 268 590.204 268C590.204 278.493 598.868 287 609.555 287C620.243 287 628.906 278.493 628.906 268C630.067 268 620.243 268 609.555 268Z" fill="#434343"/>
<path d="M609.555 307C598.868 307 588.398 307 590.204 307C590.204 317.493 598.868 326 609.555 326C620.243 326 628.906 317.493 628.906 307C630.067 307 620.243 307 609.555 307Z" fill="#434343"/>
<path d="M609.555 402C598.868 402 588.398 402 590.204 402C590.204 412.493 598.868 421 609.555 421C620.243 421 628.906 412.493 628.906 402C630.067 402 620.243 402 609.555 402Z" fill="#434343"/>
<path d="M609.555 459C598.868 459 588.398 459 590.204 459C590.204 469.493 598.868 478 609.555 478C620.243 478 628.906 469.493 628.906 459C630.067 459 620.243 459 609.555 459Z" fill="#434343"/>
<path d="M609.555 497C598.868 497 588.398 497 590.204 497C590.204 507.493 598.868 516 609.555 516C620.243 516 628.906 507.493 628.906 497C630.067 497 620.243 497 609.555 497Z" fill="#434343"/>
<path d="M612.555 556C601.868 556 591.398 556 593.204 556C593.204 566.493 601.868 575 612.555 575C623.243 575 631.906 566.493 631.906 556C633.067 556 623.243 556 612.555 556Z" fill="#434343"/>
<path d="M664.555 556C653.868 556 643.398 556 645.204 556C645.204 566.493 653.868 575 664.555 575C675.243 575 683.906 566.493 683.906 556C685.067 556 675.243 556 664.555 556Z" fill="#434343"/>
<path d="M609.555 367C598.868 367 588.398 367 590.204 367C590.204 377.493 598.868 386 609.555 386C620.243 386 628.906 377.493 628.906 367C630.067 367 620.243 367 609.555 367Z" fill="#434343"/>
<path d="M238.422 97C253.494 97 268.259 97 265.712 97C265.712 82.0883 253.494 70 238.422 70C223.35 70 211.132 82.0883 211.132 97C209.495 97 223.35 97 238.422 97Z" fill="#434343"/>
<path d="M255.422 137C270.494 137 285.259 137 282.712 137C282.712 122.088 270.494 110 255.422 110C240.35 110 228.132 122.088 228.132 137C226.495 137 240.35 137 255.422 137Z" fill="#434343"/>
<path d="M514 85.4389C514 97.2223 514 108.766 514 106.775C525.598 106.775 535 97.2223 535 85.4389C535 73.6555 525.598 64.1032 514 64.1032C514 62.8232 514 73.6555 514 85.4389Z" fill="#434343"/>
<path d="M512 213.433C512 226.313 512 238.93 512 236.754C524.703 236.754 535 226.313 535 213.433C535 200.554 524.703 190.113 512 190.113C512 188.714 512 200.554 512 213.433Z" fill="#434343"/>
<path d="M509 362.926C509 377.176 509 391.136 509 388.727C523.359 388.727 535 377.176 535 362.926C535 348.676 523.359 337.125 509 337.125C509 335.577 509 348.676 509 362.926Z" fill="#434343"/>
<path d="M498 149.561C498 137.778 498 126.234 498 128.225C485.85 128.225 476 137.778 476 149.561C476 161.345 485.85 170.897 498 170.897C498 172.177 498 161.345 498 149.561Z" fill="#434343"/>
<path d="M501 283.071C501 269.369 501 255.946 501 258.262C487.193 258.262 476 269.369 476 283.071C476 296.773 487.193 307.88 501 307.88C501 309.368 501 296.773 501 283.071Z" fill="#434343"/>
<path d="M499 444.065C499 431.46 499 419.111 499 421.241C486.297 421.241 476 431.46 476 444.065C476 456.671 486.297 466.89 499 466.89C499 468.259 499 456.671 499 444.065Z" fill="#434343"/>
<path d="M238.422 183C253.494 183 268.259 183 265.712 183C265.712 168.088 253.494 156 238.422 156C223.35 156 211.132 168.088 211.132 183C209.495 183 223.35 183 238.422 183Z" fill="#434343"/>
<path d="M255.422 223C270.494 223 285.259 223 282.712 223C282.712 208.088 270.494 196 255.422 196C240.35 196 228.132 208.088 228.132 223C226.495 223 240.35 223 255.422 223Z" fill="#434343"/>
<path d="M238.422 269C253.494 269 268.259 269 265.712 269C265.712 254.088 253.494 242 238.422 242C223.35 242 211.132 254.088 211.132 269C209.495 269 223.35 269 238.422 269Z" fill="#434343"/>
<path d="M255.422 309C270.494 309 285.259 309 282.712 309C282.712 294.088 270.494 282 255.422 282C240.35 282 228.132 294.088 228.132 309C226.495 309 240.35 309 255.422 309Z" fill="#434343"/>
<path d="M238.422 349C253.494 349 268.259 349 265.712 349C265.712 334.088 253.494 322 238.422 322C223.35 322 211.132 334.088 211.132 349C209.495 349 223.35 349 238.422 349Z" fill="#434343"/>
<path d="M99.5554 253C88.8682 253 78.3981 253 80.2044 253C80.2044 263.493 88.8682 272 99.5554 272C110.243 272 118.906 263.493 118.906 253C120.067 253 110.243 253 99.5554 253Z" fill="#434343"/>
<path d="M145.555 288C134.868 288 124.398 288 126.204 288C126.204 298.493 134.868 307 145.555 307C156.243 307 164.906 298.493 164.906 288C166.067 288 156.243 288 145.555 288Z" fill="#434343"/>
<path d="M99.5554 316C88.8682 316 78.3981 316 80.2044 316C80.2044 326.493 88.8682 335 99.5554 335C110.243 335 118.906 326.493 118.906 316C120.067 316 110.243 316 99.5554 316Z" fill="#434343"/>
<path d="M145.555 354C134.868 354 124.398 354 126.204 354C126.204 364.493 134.868 373 145.555 373C156.243 373 164.906 364.493 164.906 354C166.067 354 156.243 354 145.555 354Z" fill="#434343"/>
<path d="M1004.56 157C993.868 157 983.398 157 985.204 157C985.204 167.493 993.868 176 1004.56 176C1015.24 176 1023.91 167.493 1023.91 157C1025.07 157 1015.24 157 1004.56 157Z" fill="#434343"/>
<path d="M1085.56 176C1074.87 176 1064.4 176 1066.2 176C1066.2 186.493 1074.87 195 1085.56 195C1096.24 195 1104.91 186.493 1104.91 176C1106.07 176 1096.24 176 1085.56 176Z" fill="#434343"/>
<path d="M1004.56 208C993.868 208 983.398 208 985.204 208C985.204 218.493 993.868 227 1004.56 227C1015.24 227 1023.91 218.493 1023.91 208C1025.07 208 1015.24 208 1004.56 208Z" fill="#434343"/>
<path d="M1085.56 239C1074.87 239 1064.4 239 1066.2 239C1066.2 249.493 1074.87 258 1085.56 258C1096.24 258 1104.91 249.493 1104.91 239C1106.07 239 1096.24 239 1085.56 239Z" fill="#434343"/>
<path d="M1021.56 309C1010.87 309 1000.4 309 1002.2 309C1002.2 319.493 1010.87 328 1021.56 328C1032.24 328 1040.91 319.493 1040.91 309C1042.07 309 1032.24 309 1021.56 309Z" fill="#434343"/>
<path d="M1062.56 208C1051.87 208 1041.4 208 1043.2 208C1043.2 218.493 1051.87 227 1062.56 227C1073.24 227 1081.91 218.493 1081.91 208C1083.07 208 1073.24 208 1062.56 208Z" fill="#434343"/>
<path d="M1065.56 416C1054.87 416 1044.4 416 1046.2 416C1046.2 426.493 1054.87 435 1065.56 435C1076.24 435 1084.91 426.493 1084.91 416C1086.07 416 1076.24 416 1065.56 416Z" fill="#434343"/>
<path d="M1029.56 524C1018.87 524 1008.4 524 1010.2 524C1010.2 534.493 1018.87 543 1029.56 543C1040.24 543 1048.91 534.493 1048.91 524C1050.07 524 1040.24 524 1029.56 524Z" fill="#434343"/>
<path d="M1068.56 564C1057.87 564 1047.4 564 1049.2 564C1049.2 574.493 1057.87 583 1068.56 583C1079.24 583 1087.91 574.493 1087.91 564C1089.07 564 1079.24 564 1068.56 564Z" fill="#434343"/>
<path d="M1004.56 272C993.868 272 983.398 272 985.204 272C985.204 282.493 993.868 291 1004.56 291C1015.24 291 1023.91 282.493 1023.91 272C1025.07 272 1015.24 272 1004.56 272Z" fill="#434343"/>
<path d="M1085.56 307C1074.87 307 1064.4 307 1066.2 307C1066.2 317.493 1074.87 326 1085.56 326C1096.24 326 1104.91 317.493 1104.91 307C1106.07 307 1096.24 307 1085.56 307Z" fill="#434343"/>
<path d="M1004.56 346C993.868 346 983.398 346 985.204 346C985.204 356.493 993.868 365 1004.56 365C1015.24 365 1023.91 356.493 1023.91 346C1025.07 346 1015.24 346 1004.56 346Z" fill="#434343"/>
<path d="M1085.56 379C1074.87 379 1064.4 379 1066.2 379C1066.2 389.493 1074.87 398 1085.56 398C1096.24 398 1104.91 389.493 1104.91 379C1106.07 379 1096.24 379 1085.56 379Z" fill="#434343"/>
<path d="M1004.56 416C993.868 416 983.398 416 985.204 416C985.204 426.493 993.868 435 1004.56 435C1015.24 435 1023.91 426.493 1023.91 416C1025.07 416 1015.24 416 1004.56 416Z" fill="#434343"/>
<path d="M1085.56 447C1074.87 447 1064.4 447 1066.2 447C1066.2 457.493 1074.87 466 1085.56 466C1096.24 466 1104.91 457.493 1104.91 447C1106.07 447 1096.24 447 1085.56 447Z" fill="#434343"/>
<path d="M1004.56 491C993.868 491 983.398 491 985.204 491C985.204 501.493 993.868 510 1004.56 510C1015.24 510 1023.91 501.493 1023.91 491C1025.07 491 1015.24 491 1004.56 491Z" fill="#434343"/>
<path d="M1085.56 520C1074.87 520 1064.4 520 1066.2 520C1066.2 530.493 1074.87 539 1085.56 539C1096.24 539 1104.91 530.493 1104.91 520C1106.07 520 1096.24 520 1085.56 520Z" fill="#434343"/>
<path d="M1004.56 555C993.868 555 983.398 555 985.204 555C985.204 565.493 993.868 574 1004.56 574C1015.24 574 1023.91 565.493 1023.91 555C1025.07 555 1015.24 555 1004.56 555Z" fill="#434343"/>
<path d="M99.5554 379C88.8682 379 78.3981 379 80.2044 379C80.2044 389.493 88.8682 398 99.5554 398C110.243 398 118.906 389.493 118.906 379C120.067 379 110.243 379 99.5554 379Z" fill="#434343"/>
<path d="M145.555 420C134.868 420 124.398 420 126.204 420C126.204 430.493 134.868 439 145.555 439C156.243 439 164.906 430.493 164.906 420C166.067 420 156.243 420 145.555 420Z" fill="#434343"/>
<path d="M340.943 269C351.904 269 362.643 269 360.79 269C360.79 258.507 351.904 250 340.943 250C329.982 250 321.096 258.507 321.096 269C319.905 269 329.982 269 340.943 269Z" fill="#434343"/>
<path d="M390.943 302C401.904 302 412.643 302 410.79 302C410.79 291.507 401.904 283 390.943 283C379.982 283 371.096 291.507 371.096 302C369.905 302 379.982 302 390.943 302Z" fill="#434343"/>
<path d="M363.943 328C374.904 328 385.643 328 383.79 328C383.79 317.507 374.904 309 363.943 309C352.982 309 344.096 317.507 344.096 328C342.905 328 352.982 328 363.943 328Z" fill="#434343"/>
<path d="M390.943 368C401.904 368 412.643 368 410.79 368C410.79 357.507 401.904 349 390.943 349C379.982 349 371.096 357.507 371.096 368C369.905 368 379.982 368 390.943 368Z" fill="#434343"/>
<path d="M793 319.057C793 308.096 793 297.357 793 299.21C782.507 299.21 774 308.096 774 319.057C774 330.018 782.507 338.904 793 338.904C793 340.095 793 330.018 793 319.057Z" fill="#434343"/>
<path d="M793 381.057C793 370.096 793 359.357 793 361.21C782.507 361.21 774 370.096 774 381.057C774 392.018 782.507 400.904 793 400.904C793 402.095 793 392.018 793 381.057Z" fill="#434343"/>
<path d="M793 448.057C793 437.096 793 426.357 793 428.21C782.507 428.21 774 437.096 774 448.057C774 459.018 782.507 467.904 793 467.904C793 469.095 793 459.018 793 448.057Z" fill="#434343"/>
<path d="M793 504.057C793 493.096 793 482.357 793 484.21C782.507 484.21 774 493.096 774 504.057C774 515.018 782.507 523.904 793 523.904C793 525.095 793 515.018 793 504.057Z" fill="#434343"/>
<path d="M793 560.057C793 549.096 793 538.357 793 540.21C782.507 540.21 774 549.096 774 560.057C774 571.018 782.507 579.904 793 579.904C793 581.095 793 571.018 793 560.057Z" fill="#434343"/>
<path d="M740 338.943C740 349.904 740 360.643 740 358.79C750.493 358.79 759 349.904 759 338.943C759 327.982 750.493 319.096 740 319.096C740 317.905 740 327.982 740 338.943Z" fill="#434343"/>
<path d="M740 400.943C740 411.904 740 422.643 740 420.79C750.493 420.79 759 411.904 759 400.943C759 389.982 750.493 381.096 740 381.096C740 379.905 740 389.982 740 400.943Z" fill="#434343"/>
<path d="M740 457.943C740 468.904 740 479.643 740 477.79C750.493 477.79 759 468.904 759 457.943C759 446.982 750.493 438.096 740 438.096C740 436.905 740 446.982 740 457.943Z" fill="#434343"/>
<path d="M740 523.943C740 534.904 740 545.643 740 543.79C750.493 543.79 759 534.904 759 523.943C759 512.982 750.493 504.096 740 504.096C740 502.905 740 512.982 740 523.943Z" fill="#434343"/>
<path d="M740 565.219C740 576.18 740 586.918 740 585.066C750.493 585.066 759 576.18 759 565.219C756 556.773 750.493 556.773 740 556.773C740 555.583 740 554.257 740 565.219Z" fill="#434343"/>
<path d="M336.943 398C347.904 398 358.643 398 356.79 398C356.79 387.507 347.904 379 336.943 379C325.982 379 317.096 387.507 317.096 398C315.905 398 325.982 398 336.943 398Z" fill="#434343"/>
<path d="M363.943 427C374.904 427 385.643 427 383.79 427C383.79 416.507 374.904 408 363.943 408C352.982 408 344.096 416.507 344.096 427C342.905 427 352.982 427 363.943 427Z" fill="#434343"/>
<path d="M336.943 461C347.904 461 358.643 461 356.79 461C356.79 450.507 347.904 442 336.943 442C325.982 442 317.096 450.507 317.096 461C315.905 461 325.982 461 336.943 461Z" fill="#434343"/>
<path d="M390.943 496C401.904 496 412.643 496 410.79 496C410.79 485.507 401.904 477 390.943 477C379.982 477 371.096 485.507 371.096 496C369.905 496 379.982 496 390.943 496Z" fill="#434343"/>
<path d="M363.943 522C374.904 522 385.643 522 383.79 522C383.79 511.507 374.904 503 363.943 503C352.982 503 344.096 511.507 344.096 522C342.905 522 352.982 522 363.943 522Z" fill="#434343"/>
<path d="M390.943 557C401.904 557 412.643 557 410.79 557C410.79 546.507 401.904 538 390.943 538C379.982 538 371.096 546.507 371.096 557C369.905 557 379.982 557 390.943 557Z" fill="#434343"/>
<path d="M336.943 581C347.904 581 358.643 581 356.79 581C356.79 570.507 347.904 562 336.943 562C325.982 562 317.096 570.507 317.096 581C315.905 581 325.982 581 336.943 581Z" fill="#434343"/>
<path d="M99.5554 442C88.8682 442 78.3981 442 80.2044 442C80.2044 452.493 88.8682 461 99.5554 461C110.243 461 118.906 452.493 118.906 442C120.067 442 110.243 442 99.5554 442Z" fill="#434343"/>
<path d="M145.555 486C134.868 486 124.398 486 126.204 486C126.204 496.493 134.868 505 145.555 505C156.243 505 164.906 496.493 164.906 486C166.067 486 156.243 486 145.555 486Z" fill="#434343"/>
<path d="M99.5554 505C88.8682 505 78.3981 505 80.2044 505C80.2044 515.493 88.8682 524 99.5554 524C110.243 524 118.906 515.493 118.906 505C120.067 505 110.243 505 99.5554 505Z" fill="#434343"/>
<path d="M145.555 552C134.868 552 124.398 552 126.204 552C126.204 562.493 134.868 571 145.555 571C156.243 571 164.906 562.493 164.906 552C166.067 552 156.243 552 145.555 552Z" fill="#434343"/>
<defs>
<linearGradient id="paint0_linear_352_3298" x1="595.25" y1="0" x2="595.25" y2="585" gradientUnits="userSpaceOnUse">
<stop offset="0.575" stop-color="#66B0EF"/>
<stop offset="1" stop-color="#AFD6A0"/>
</linearGradient>
</defs>
</svg>
