<svg width="709" height="673" viewBox="0 0 709 673" fill="none" xmlns="http://www.w3.org/2000/svg">
<rect x="59.3027" width="586.695" height="345.979" rx="30" fill="url(#paint0_linear_351_2995)"/>
<path d="M571.455 669.549C604.423 670.054 634.104 670.508 654.815 670.826C671.382 671.079 685.131 657.824 684.143 641.285C677.964 537.829 631.892 457.61 574.713 456.734C517.534 455.859 469.027 534.63 459.685 637.849C458.191 654.35 470.092 667.998 486.658 668.251C508.238 668.582 539.321 669.057 571.455 669.549Z" fill="white"/>
<path d="M169.983 668.76C212.542 667.487 250.511 666.352 275.312 665.61C291.873 665.115 305.022 651.244 303.051 634.793C290.701 531.761 231.876 453.974 163.622 456.015C95.368 458.056 41.2953 539.219 35.1245 642.805C34.1392 659.344 46.3899 672.455 62.951 671.96C88.745 671.189 128.635 669.996 169.983 668.76Z" fill="#A1A1A1"/>
<path d="M512.315 404.792C490.149 466.468 472.18 516.467 472.18 516.467C542.926 541.892 618.246 512.505 640.412 450.829C662.578 389.153 623.196 318.543 552.45 293.117C555.235 285.368 534.481 343.116 512.315 404.792Z" fill="#A1A1A1"/>
<ellipse cx="44.8133" cy="45.5193" rx="44.8133" ry="45.5193" transform="matrix(-0.94107 -0.338213 -0.338213 0.94107 625.932 230.645)" fill="#A1A1A1"/>
<path d="M182.562 426.376C191.476 491.305 198.702 543.941 198.702 543.941C124.224 554.166 56.6218 509.819 47.708 444.889C38.7942 379.96 91.9445 319.035 166.423 308.81C165.303 300.653 173.649 361.446 182.562 426.376Z" fill="white"/>
<path d="M207.813 539.906C208.808 491.357 209.615 452 209.615 452C247.38 452.774 277.188 492.758 276.193 541.307C275.199 589.857 243.777 628.587 206.012 627.813C205.887 633.913 206.819 588.456 207.813 539.906Z" fill="white"/>
<path d="M471.137 544.053C470.726 592.611 470.392 631.975 470.392 631.975C432.62 631.655 402.334 592.032 402.745 543.474C403.156 494.916 434.11 455.811 471.881 456.131C471.933 450.03 471.548 495.495 471.137 544.053Z" fill="#93C2EA"/>
<path d="M471.137 544.053C470.726 592.611 470.392 631.975 470.392 631.975C432.62 631.655 402.334 592.032 402.745 543.474C403.156 494.916 434.11 455.811 471.881 456.131C471.933 450.03 471.548 495.495 471.137 544.053Z" fill="#93C2EA"/>
<path d="M471.137 544.053C470.726 592.611 470.392 631.975 470.392 631.975C432.62 631.655 402.334 592.032 402.745 543.474C403.156 494.916 434.11 455.811 471.881 456.131C471.933 450.03 471.548 495.495 471.137 544.053Z" fill="#A1A1A1"/>
<path d="M552.208 537.18C587.287 570.758 615.724 597.979 615.724 597.979C589.605 625.266 539.993 620.165 504.915 586.587C469.836 553.009 462.573 503.667 488.692 476.381C484.285 472.162 517.129 503.601 552.208 537.18Z" fill="#93C2EA"/>
<path d="M552.208 537.18C587.287 570.758 615.724 597.979 615.724 597.979C589.605 625.266 539.993 620.165 504.915 586.587C469.836 553.009 462.573 503.667 488.692 476.381C484.285 472.162 517.129 503.601 552.208 537.18Z" fill="#93C2EA"/>
<path d="M552.208 537.18C587.287 570.758 615.724 597.979 615.724 597.979C589.605 625.266 539.993 620.165 504.915 586.587C469.836 553.009 462.573 503.667 488.692 476.381C484.285 472.162 517.129 503.601 552.208 537.18Z" fill="#A1A1A1"/>
<path d="M106.233 542.537C152.007 558.747 189.114 571.888 189.114 571.888C176.505 607.494 129.176 623.218 83.4015 607.008C37.6274 590.798 10.7421 548.792 23.3515 513.186C17.6006 511.149 60.4587 526.327 106.233 542.537Z" fill="white"/>
<ellipse cx="146.646" cy="275.121" rx="44.8135" ry="45.5193" transform="rotate(-22.6209 146.646 275.121)" fill="white"/>
<defs>
<linearGradient id="paint0_linear_351_2995" x1="352.65" y1="0" x2="352.65" y2="345.979" gradientUnits="userSpaceOnUse">
<stop stop-color="#DDC966"/>
<stop offset="1" stop-color="#B4D99B"/>
</linearGradient>
</defs>
</svg>
