<svg width="706" height="673" viewBox="0 0 706 673" fill="none" xmlns="http://www.w3.org/2000/svg">
<rect x="56.3008" width="586.695" height="345.979" rx="30" fill="url(#paint0_linear_349_2958)"/>
<path d="M568.453 669.549C601.421 670.054 631.102 670.508 651.813 670.826C668.38 671.079 682.129 657.824 681.141 641.285C674.962 537.829 628.89 457.61 571.711 456.734C514.532 455.859 466.025 534.63 456.683 637.849C455.189 654.35 467.09 667.998 483.656 668.251C505.236 668.582 536.319 669.057 568.453 669.549Z" fill="white"/>
<path d="M166.981 668.76C209.54 667.487 247.509 666.352 272.31 665.61C288.871 665.115 302.02 651.244 300.049 634.793C287.699 531.761 228.874 453.974 160.62 456.015C92.3661 458.056 38.2934 539.219 32.1225 642.805C31.1372 659.344 43.3879 672.455 59.949 671.96C85.743 671.189 125.633 669.996 166.981 668.76Z" fill="#A1A1A1"/>
<path d="M509.313 404.792C487.147 466.468 469.178 516.467 469.178 516.467C539.924 541.893 615.244 512.505 637.41 450.829C659.576 389.153 620.194 318.543 549.448 293.117C552.233 285.368 531.479 343.116 509.313 404.792Z" fill="#A1A1A1"/>
<ellipse cx="44.8133" cy="45.5193" rx="44.8133" ry="45.5193" transform="matrix(-0.94107 -0.338213 -0.338213 0.94107 622.93 230.645)" fill="#A1A1A1"/>
<path d="M179.56 426.376C188.474 491.305 195.7 543.941 195.7 543.941C121.222 554.166 53.6198 509.819 44.706 444.889C35.7922 379.96 88.9425 319.035 163.421 308.81C162.301 300.653 170.647 361.446 179.56 426.376Z" fill="white"/>
<path d="M275.816 496.669C240.166 529.641 211.266 556.369 211.266 556.369C185.619 528.638 193.727 479.429 229.377 446.458C265.027 413.486 314.718 409.238 340.366 436.969C344.845 432.826 311.466 463.698 275.816 496.669Z" fill="white"/>
<path d="M427.035 536.265C394.624 572.426 368.35 601.74 368.35 601.74C340.222 576.529 343.693 526.777 376.104 490.616C408.514 454.455 457.59 445.579 485.719 470.79C489.791 466.247 459.445 500.104 427.035 536.265Z" fill="#93C2EA"/>
<path d="M427.035 536.265C394.624 572.426 368.35 601.74 368.35 601.74C340.222 576.529 343.693 526.777 376.104 490.616C408.514 454.455 457.59 445.579 485.719 470.79C489.791 466.247 459.445 500.104 427.035 536.265Z" fill="#93C2EA"/>
<path d="M427.035 536.265C394.624 572.426 368.35 601.74 368.35 601.74C340.222 576.529 343.693 526.777 376.104 490.616C408.514 454.455 457.59 445.579 485.719 470.79C489.791 466.247 459.445 500.104 427.035 536.265Z" fill="#A1A1A1"/>
<path d="M502.126 571.17C490.398 618.292 480.889 656.491 480.889 656.491C444.235 647.368 424.028 601.772 435.757 554.65C447.486 507.528 486.708 476.724 523.363 485.848C524.837 479.928 513.855 524.048 502.126 571.17Z" fill="#93C2EA"/>
<path d="M502.126 571.17C490.398 618.292 480.889 656.491 480.889 656.491C444.235 647.368 424.028 601.772 435.757 554.65C447.486 507.528 486.708 476.724 523.363 485.848C524.837 479.928 513.855 524.048 502.126 571.17Z" fill="#93C2EA"/>
<path d="M502.126 571.17C490.398 618.292 480.889 656.491 480.889 656.491C444.235 647.368 424.028 601.772 435.757 554.65C447.486 507.528 486.708 476.724 523.363 485.848C524.837 479.928 513.855 524.048 502.126 571.17Z" fill="#A1A1A1"/>
<path d="M102.421 608.34C55.4559 620.683 17.3834 630.688 17.3834 630.688C7.78231 594.156 38.0716 554.535 85.0364 542.192C132.001 529.849 177.857 549.459 187.458 585.991C193.359 584.441 149.386 595.997 102.421 608.34Z" fill="white"/>
<ellipse cx="143.644" cy="275.121" rx="44.8135" ry="45.5193" transform="rotate(-22.6209 143.644 275.121)" fill="white"/>
<defs>
<linearGradient id="paint0_linear_349_2958" x1="349.648" y1="0" x2="349.648" y2="345.979" gradientUnits="userSpaceOnUse">
<stop stop-color="#DDC966"/>
<stop offset="1" stop-color="#B4D99B"/>
</linearGradient>
</defs>
</svg>
