<svg width="682" height="673" viewBox="0 0 682 673" fill="none" xmlns="http://www.w3.org/2000/svg">
<rect x="32.3008" width="586.695" height="345.979" rx="30" fill="url(#paint0_linear_349_2962)"/>
<path d="M544.453 669.549C577.421 670.054 607.102 670.508 627.813 670.826C644.38 671.079 658.129 657.824 657.141 641.285C650.962 537.829 604.89 457.61 547.711 456.734C490.532 455.859 442.025 534.63 432.683 637.849C431.189 654.35 443.09 667.998 459.656 668.251C481.236 668.582 512.319 669.057 544.453 669.549Z" fill="white"/>
<path d="M142.981 668.76C185.54 667.487 223.509 666.352 248.31 665.61C264.871 665.115 278.02 651.244 276.049 634.793C263.699 531.761 204.874 453.974 136.62 456.015C68.3661 458.056 14.2934 539.219 8.12251 642.805C7.13723 659.344 19.3879 672.455 35.9491 671.96C61.743 671.189 101.633 669.996 142.981 668.76Z" fill="#A1A1A1"/>
<path d="M485.313 404.792C463.147 466.468 445.178 516.467 445.178 516.467C515.924 541.892 591.244 512.505 613.41 450.829C635.576 389.153 596.194 318.543 525.448 293.117C528.233 285.368 507.479 343.116 485.313 404.792Z" fill="#A1A1A1"/>
<ellipse cx="44.8133" cy="45.5193" rx="44.8133" ry="45.5193" transform="matrix(-0.94107 -0.338213 -0.338213 0.94107 598.93 230.645)" fill="#A1A1A1"/>
<path d="M155.56 426.376C164.474 491.305 171.7 543.941 171.7 543.941C97.2223 554.166 29.6198 509.819 20.706 444.889C11.7922 379.96 64.9425 319.035 139.421 308.81C138.301 300.653 146.647 361.446 155.56 426.376Z" fill="white"/>
<ellipse cx="119.644" cy="275.121" rx="44.8135" ry="45.5193" transform="rotate(-22.6209 119.644 275.121)" fill="white"/>
<defs>
<linearGradient id="paint0_linear_349_2962" x1="325.648" y1="0" x2="325.648" y2="345.979" gradientUnits="userSpaceOnUse">
<stop stop-color="#DDC966"/>
<stop offset="1" stop-color="#B4D99B"/>
</linearGradient>
</defs>
</svg>
