<svg width="1091" height="900" viewBox="0 0 1091 900" fill="none" xmlns="http://www.w3.org/2000/svg">
<rect x="0.361328" width="540" height="900" fill="url(#paint0_linear_353_3422)"/>
<path d="M341.906 276.092C289.2 307.304 246.474 332.606 246.474 332.606C269.194 369.905 330.339 374.841 383.045 343.629C435.751 312.418 460.059 256.879 437.339 219.579C443.961 215.658 394.612 244.881 341.906 276.092Z" fill="white"/>
<path d="M178.483 400.144C121.316 422.432 74.9739 440.501 74.9739 440.501C58.8084 400.009 92.0462 349.117 149.213 326.828C206.379 304.54 265.826 319.297 281.992 359.788C289.174 356.988 235.649 377.856 178.483 400.144Z" fill="white"/>
<path d="M158.117 535.845C136.486 608.028 118.951 666.543 118.951 666.543C169.108 680.901 227.304 634.025 248.934 561.842C270.565 489.66 247.44 419.505 197.283 405.147C200 396.078 179.748 463.663 158.117 535.845Z" fill="white"/>
<path d="M294.653 526.388C319.627 597.324 339.873 654.83 339.873 654.83C389.293 637.811 409.111 566.509 384.137 495.572C359.162 424.636 298.853 380.927 249.433 397.946C246.295 389.034 269.679 455.451 294.653 526.388Z" fill="white"/>
<path d="M297.426 293.482C300.382 316.89 283.479 338.303 259.673 341.309C235.867 344.316 214.172 327.777 211.216 304.369C208.26 280.96 225.162 259.547 248.968 256.541C272.775 253.535 294.47 270.074 297.426 293.482Z" fill="white"/>
<rect x="540" width="540" height="900" fill="url(#paint1_linear_353_3422)"/>
<path d="M949.091 315.331C888.376 323.437 839.156 330.008 839.156 330.008C845.475 373.223 899.816 401.685 960.531 393.578C1021.25 385.472 1065.34 343.868 1059.03 300.653C1066.65 299.634 1009.81 307.224 949.091 315.331Z" fill="white"/>
<path d="M750.164 365.567C688.834 363.717 639.117 362.216 639.117 362.216C640.079 318.628 690.576 284.793 751.906 286.644C813.236 288.494 862.173 325.33 861.211 368.918C868.916 369.151 811.493 367.418 750.164 365.567Z" fill="white"/>
<path d="M678.336 482.489C630.192 540.457 591.164 587.45 591.164 587.45C631.707 620.285 703.602 599.91 751.746 541.941C799.89 483.972 806.051 410.361 765.507 377.527C771.556 370.244 726.479 424.52 678.336 482.489Z" fill="white"/>
<path d="M807.692 527.194C802.926 602.247 799.063 663.09 799.063 663.09C851.203 666.76 897.334 608.892 902.099 533.839C906.864 458.785 868.459 394.968 816.32 391.298C816.918 381.869 812.457 452.141 807.692 527.194Z" fill="white"/>
<path d="M901.351 313.934C894.915 336.633 870.983 349.728 847.897 343.182C824.812 336.636 811.316 312.928 817.752 290.229C824.188 267.53 848.121 254.435 871.206 260.981C894.291 267.527 907.788 291.235 901.351 313.934Z" fill="white"/>
<defs>
<linearGradient id="paint0_linear_353_3422" x1="540.361" y1="450" x2="0.361328" y2="450" gradientUnits="userSpaceOnUse">
<stop stop-color="#B4D99B"/>
<stop offset="1" stop-color="#66B0EF"/>
</linearGradient>
<linearGradient id="paint1_linear_353_3422" x1="1080" y1="450" x2="540" y2="450" gradientUnits="userSpaceOnUse">
<stop stop-color="#B4D99B"/>
<stop offset="1" stop-color="#66B0EF"/>
</linearGradient>
</defs>
</svg>
