<svg width="936" height="450" viewBox="0 0 936 450" fill="none" xmlns="http://www.w3.org/2000/svg">
<rect width="468" height="450" fill="url(#paint0_linear_353_3519)"/>
<path d="M183.874 202.008C257.291 216.605 316.807 228.439 316.807 228.439C303.709 294.31 233.576 335.875 160.159 321.278C86.7425 306.68 37.8441 241.447 50.9415 175.576C41.7176 173.742 110.457 187.41 183.874 202.008Z" fill="white"/>
<path d="M273.855 315.984C256.486 368.387 242.405 410.869 242.405 410.869C263.699 417.629 295.041 380.627 312.41 328.223C329.779 275.82 328.076 216.185 311.795 230.691C313.977 224.107 291.224 263.58 273.855 315.984Z" fill="white"/>
<path d="M176.988 126.329C173.03 180.157 169.822 223.793 169.822 223.793C128.932 220.269 98.9937 173.777 102.952 119.949C106.909 66.1216 143.265 25.342 184.154 28.8656C184.652 22.1028 180.946 72.5016 176.988 126.329Z" fill="white"/>
<path d="M278.146 150.323C254.712 199.089 235.714 238.622 235.714 238.622C198.372 221.814 187.097 168.656 210.531 119.89C233.966 71.1238 283.235 45.2163 320.577 62.0239C323.522 55.897 301.58 101.557 278.146 150.323Z" fill="white"/>
<path d="M63.6049 271.308C61.7133 325.278 60.1799 369.03 60.1799 369.03C37.4329 367.859 20.5263 323.158 22.4179 269.188C24.3095 215.217 45.154 165.469 58.1256 178.815C58.3633 172.035 65.4966 217.337 63.6049 271.308Z" fill="white"/>
<path d="M193.683 357.12C189.574 377.786 168.553 391.021 146.731 386.682C124.91 382.343 110.551 362.073 114.66 341.407C118.769 320.742 139.79 307.506 161.611 311.845C183.433 316.184 197.792 336.454 193.683 357.12Z" fill="white"/>
<rect x="468" width="468" height="450" fill="url(#paint1_linear_353_3519)"/>
<path d="M772.601 201.754C846.017 216.351 905.533 228.185 905.533 228.185C892.436 294.056 822.302 335.621 748.886 321.024C675.469 306.426 626.571 241.193 639.668 175.322C630.444 173.488 699.184 187.156 772.601 201.754Z" fill="white"/>
<path d="M862.582 315.73C845.212 368.134 831.132 410.615 831.132 410.615C852.425 417.375 883.767 380.373 901.137 327.97C918.506 275.566 916.803 215.931 900.521 230.437C902.704 223.853 879.951 263.326 862.582 315.73Z" fill="white"/>
<path d="M765.715 126.075C761.757 179.903 758.548 223.539 758.548 223.539C717.659 220.015 687.72 173.523 691.678 119.695C695.636 65.8677 731.992 25.0881 772.881 28.6117C773.378 21.8489 769.672 72.2477 765.715 126.075Z" fill="white"/>
<path d="M866.873 150.069C843.438 198.835 824.441 238.368 824.441 238.368C787.099 221.56 775.824 168.402 799.258 119.636C822.692 70.8699 871.961 44.9624 909.304 61.77C912.248 55.6431 890.307 101.303 866.873 150.069Z" fill="white"/>
<path d="M652.332 271.054C650.44 325.024 648.906 368.776 648.906 368.776C626.159 367.606 609.253 322.905 611.144 268.934C613.036 214.963 633.881 165.215 646.852 178.561C647.09 171.781 654.223 217.083 652.332 271.054Z" fill="white"/>
<path d="M782.409 356.866C778.3 377.532 757.28 390.767 735.458 386.428C713.636 382.089 699.277 361.819 703.387 341.154C707.496 320.488 728.516 307.252 750.338 311.591C772.16 315.93 786.518 336.2 782.409 356.866Z" fill="white"/>
<defs>
<linearGradient id="paint0_linear_353_3519" x1="234" y1="0" x2="234" y2="450" gradientUnits="userSpaceOnUse">
<stop stop-color="#DDC966"/>
<stop offset="1" stop-color="#B4D99B"/>
</linearGradient>
<linearGradient id="paint1_linear_353_3519" x1="702" y1="0" x2="702" y2="450" gradientUnits="userSpaceOnUse">
<stop stop-color="#DDC966"/>
<stop offset="1" stop-color="#B4D99B"/>
</linearGradient>
</defs>
</svg>
