<svg width="1080" height="900" viewBox="0 0 1080 900" fill="none" xmlns="http://www.w3.org/2000/svg">
<rect x="0.361328" width="540" height="900" fill="url(#paint0_linear_353_3433)"/>
<path d="M323.438 274.921C270.732 306.132 228.005 331.434 228.005 331.434C250.725 368.733 311.87 373.669 364.576 342.458C417.282 311.246 441.59 255.707 418.87 218.408C425.492 214.486 376.144 243.709 323.438 274.921Z" fill="white"/>
<path d="M160.014 398.972C102.848 421.26 56.5052 439.329 56.5052 439.329C40.3397 398.837 73.5775 347.945 130.744 325.656C187.91 303.368 247.357 318.125 263.523 358.616C270.705 355.816 217.18 376.684 160.014 398.972Z" fill="white"/>
<path d="M139.648 534.673C118.018 606.856 100.482 665.371 100.482 665.371C150.639 679.729 208.835 632.853 230.465 560.671C252.096 488.488 228.971 418.333 178.814 403.975C181.532 394.906 161.279 462.491 139.648 534.673Z" fill="white"/>
<path d="M276.184 525.216C301.159 596.152 321.404 653.658 321.404 653.658C370.825 636.639 390.642 565.337 365.668 494.4C340.694 423.464 280.385 379.755 230.964 396.774C227.827 387.862 251.21 454.28 276.184 525.216Z" fill="white"/>
<path d="M278.957 292.31C281.913 315.718 265.011 337.131 241.204 340.137C217.398 343.144 195.703 326.605 192.747 303.197C189.791 279.789 206.693 258.375 230.5 255.369C254.306 252.363 276.001 268.902 278.957 292.31Z" fill="white"/>
<rect x="540" width="540" height="900" fill="url(#paint1_linear_353_3433)"/>
<path d="M933.639 316.895C872.768 323.734 823.423 329.279 823.423 329.279C828.839 372.616 882.576 402.203 943.447 395.364C1004.32 388.524 1049.27 347.848 1043.86 304.511C1051.5 303.652 994.51 310.055 933.639 316.895Z" fill="white"/>
<path d="M733.708 362.975C672.43 359.847 622.755 357.311 622.755 357.311C624.625 313.753 675.817 280.977 737.094 284.105C798.372 287.233 846.532 325.08 844.661 368.639C852.36 369.032 794.986 366.103 733.708 362.975Z" fill="white"/>
<path d="M659.459 478.375C610.118 535.328 570.119 581.498 570.119 581.498C609.97 615.17 682.274 596.297 731.615 539.344C780.956 482.391 788.65 408.925 748.799 375.253C754.998 368.097 708.8 421.422 659.459 478.375Z" fill="white"/>
<path d="M787.856 525.772C781.528 600.709 776.398 661.458 776.398 661.458C828.45 666.214 875.777 609.32 882.105 534.382C888.433 459.444 851.366 394.84 799.314 390.085C800.109 380.67 794.184 450.834 787.856 525.772Z" fill="white"/>
<path d="M885.938 314.509C879.03 337.069 854.831 349.662 831.887 342.637C808.943 335.611 795.943 311.627 802.851 289.067C809.759 266.507 833.959 253.914 856.903 260.94C879.847 267.965 892.846 291.949 885.938 314.509Z" fill="white"/>
<defs>
<linearGradient id="paint0_linear_353_3433" x1="540.361" y1="450" x2="0.361328" y2="450" gradientUnits="userSpaceOnUse">
<stop stop-color="#B4D99B"/>
<stop offset="1" stop-color="#66B0EF"/>
</linearGradient>
<linearGradient id="paint1_linear_353_3433" x1="1080" y1="450" x2="540" y2="450" gradientUnits="userSpaceOnUse">
<stop stop-color="#B4D99B"/>
<stop offset="1" stop-color="#66B0EF"/>
</linearGradient>
</defs>
</svg>
