<svg width="1205" height="549" viewBox="0 0 1205 549" fill="none" xmlns="http://www.w3.org/2000/svg">
<path d="M600.496 166.769C701.755 131 783.841 102.003 783.841 102.003C817.207 196.457 762.168 302.024 660.909 337.793C559.649 373.562 450.515 325.988 417.15 231.534C404.428 236.028 499.237 202.538 600.496 166.769Z" fill="#434343"/>
<path d="M1062.41 423.623C980.899 412.234 914.826 403.002 914.826 403.002C910.503 434.777 973.072 469.768 1054.58 481.156C1136.08 492.545 1223.19 475.178 1197.61 455.818C1207.85 457.249 1143.91 435.012 1062.41 423.623Z" fill="#434343"/>
<path d="M130.697 179.751C78.3974 118.609 35.9999 69.0438 35.9999 69.0438C80.9029 30.9124 159.701 49.566 212.001 110.708C264.301 171.849 270.298 252.326 225.395 290.458C231.966 298.139 182.997 240.892 130.697 179.751Z" fill="#434343"/>
<path d="M1083.96 194.688C1021.4 245.365 970.684 286.447 970.684 286.447C933.303 240.967 953.716 163.017 1016.28 112.339C1078.84 61.6619 1159.86 57.4484 1197.24 102.928C1205.1 96.5611 1146.53 144.01 1083.96 194.688Z" fill="#434343"/>
<path d="M138.156 430.575C217.476 417.003 281.777 406.001 281.777 406.001C287.142 438.264 227.19 475.419 147.87 488.991C68.5509 502.562 -10.5024 488.277 4.93452 466.067C-5.03101 467.772 58.8371 444.146 138.156 430.575Z" fill="#434343"/>
<ellipse cx="601.796" cy="491.908" rx="57.7958" ry="56.9043" fill="#434343"/>
</svg>
