<svg width="3127" height="762" viewBox="0 0 3127 762" fill="none" xmlns="http://www.w3.org/2000/svg">
<path d="M340.421 739.344C387.387 737.94 429.146 736.691 455.693 735.897C472.255 735.402 485.389 721.529 483.519 705.067C470.837 593.382 407.342 508.764 333.592 510.97C259.843 513.175 201.517 601.435 195.531 713.678C194.649 730.223 206.769 743.34 223.33 742.845C250.918 742.02 294.845 740.707 340.421 739.344Z" fill="url(#paint0_linear_269_754)"/>
<rect x="194.475" y="42.7305" width="437" height="372" rx="30" fill="white"/>
<rect x="2248.52" y="44.6719" width="656.951" height="371.396" rx="30" fill="white"/>
<path d="M2875.54 754.461C2922.5 756.047 2964.25 757.457 2990.8 758.353C3007.36 758.912 3021.35 745.903 3020.53 729.355C3014.98 617.09 2956.99 528.605 2883.25 526.115C2809.51 523.624 2745.69 607.996 2732.58 719.631C2730.64 736.086 2741.9 749.948 2758.46 750.507C2786.05 751.438 2829.97 752.922 2875.54 754.461Z" fill="url(#paint1_linear_269_754)"/>
<path d="M353.924 479.152C363.493 548.852 371.25 605.355 371.25 605.355C291.3 616.33 218.732 568.725 209.163 499.026C199.594 429.326 256.649 363.926 336.599 352.95C335.397 344.193 344.356 409.453 353.924 479.152Z" fill="#A1A1A1"/>
<path d="M2818.76 587.06C2769.41 579.558 2729.41 573.477 2729.41 573.477C2750.94 431.878 2808.39 323.17 2857.73 330.672C2907.08 338.173 2929.63 459.043 2908.1 600.643C2914.3 601.585 2868.1 594.561 2818.76 587.06Z" fill="#A1A1A1"/>
<path d="M387.039 618.658C395.624 567.243 402.584 525.562 402.584 525.562C442.579 532.241 468.041 579.335 459.455 630.75C450.87 682.165 411.488 718.432 371.494 711.753C370.415 718.213 378.454 670.073 387.039 618.658Z" fill="#A1A1A1"/>
<path d="M367.172 437.63C405.237 402.017 436.095 373.147 436.095 373.147C457.501 396.026 443.996 443.444 405.931 479.057C367.866 514.67 319.656 524.993 298.25 502.114C293.468 506.588 329.108 473.243 367.172 437.63Z" fill="#A1A1A1"/>
<ellipse cx="315.367" cy="316.785" rx="48.1058" ry="48.8634" transform="rotate(-22.6209 315.367 316.785)" fill="#A1A1A1"/>
<ellipse cx="2856.55" cy="280.84" rx="48.1058" ry="48.8634" transform="rotate(-22.6209 2856.55 280.84)" fill="#A1A1A1"/>
<rect y="1.75391" width="179.567" height="759.435" rx="30" fill="url(#paint2_linear_269_754)"/>
<rect x="2946.64" width="179.567" height="759.435" rx="30" fill="url(#paint3_linear_269_754)"/>
<rect x="628.922" y="1.75391" width="391.543" height="759.435" rx="30" fill="url(#paint4_linear_269_754)"/>
<rect x="1042.36" y="1.75391" width="507.166" height="759.435" rx="30" fill="url(#paint5_linear_269_754)"/>
<rect x="1571.43" width="501.91" height="759.435" rx="30" fill="url(#paint6_linear_269_754)"/>
<rect x="2094.36" y="1.75391" width="391.543" height="759.435" rx="30" fill="url(#paint7_linear_269_754)"/>
<path d="M2707.12 610.312C2662.48 637.218 2626.28 659.03 2626.28 659.03C2605.35 624.301 2624.58 574.336 2669.23 547.43C2713.87 520.524 2767.03 526.865 2787.96 561.595C2793.57 558.214 2751.77 583.406 2707.12 610.312Z" fill="#93C2EA"/>
<path d="M2707.12 610.312C2662.48 637.218 2626.28 659.03 2626.28 659.03C2605.35 624.301 2624.58 574.336 2669.23 547.43C2713.87 520.524 2767.03 526.865 2787.96 561.595C2793.57 558.214 2751.77 583.406 2707.12 610.312Z" fill="#93C2EA"/>
<path d="M2707.12 610.312C2662.48 637.218 2626.28 659.03 2626.28 659.03C2605.35 624.301 2624.58 574.336 2669.23 547.43C2713.87 520.524 2767.03 526.865 2787.96 561.595C2793.57 558.214 2751.77 583.406 2707.12 610.312Z" fill="#A1A1A1"/>
<path d="M2769.87 675.528C2745.95 721.841 2726.55 759.385 2726.55 759.385C2690.53 740.775 2680.72 688.145 2704.64 641.832C2728.56 595.52 2777.16 573.062 2813.19 591.671C2816.19 585.852 2793.79 629.215 2769.87 675.528Z" fill="#93C2EA"/>
<path d="M2769.87 675.528C2745.95 721.841 2726.55 759.385 2726.55 759.385C2690.53 740.775 2680.72 688.145 2704.64 641.832C2728.56 595.52 2777.16 573.062 2813.19 591.671C2816.19 585.852 2793.79 629.215 2769.87 675.528Z" fill="#93C2EA"/>
<path d="M2769.87 675.528C2745.95 721.841 2726.55 759.385 2726.55 759.385C2690.53 740.775 2680.72 688.145 2704.64 641.832C2728.56 595.52 2777.16 573.062 2813.19 591.671C2816.19 585.852 2793.79 629.215 2769.87 675.528Z" fill="#A1A1A1"/>
<path d="M271.118 674.484C220.703 687.734 179.834 698.475 179.834 698.475C169.527 659.258 202.042 616.726 252.457 603.477C302.872 590.227 352.097 611.278 362.403 650.494C368.737 648.829 321.533 661.235 271.118 674.484Z" fill="#A1A1A1"/>
<path d="M643 380.633C643 368.28 643 356.029 643 358.266C655.15 358.266 665 368.28 665 380.633C665 392.986 655.15 403 643 403C643 403 643 392.986 643 380.633Z" fill="white"/>
<path d="M1587 380.633C1587 368.28 1587 356.029 1587 358.266C1599.15 358.266 1609 368.28 1609 380.633C1609 392.986 1599.15 403 1587 403C1587 403 1587 392.986 1587 380.633Z" fill="white"/>
<path d="M2960 379.633C2960 367.28 2960 355.029 2960 357.266C2972.15 357.266 2982 367.28 2982 379.633C2982 391.986 2972.15 402 2960 402C2960 402 2960 391.986 2960 379.633Z" fill="white"/>
<defs>
<linearGradient id="paint0_linear_269_754" x1="339.966" y1="739.358" x2="333.137" y2="510.983" gradientUnits="userSpaceOnUse">
<stop stop-color="#DDC966"/>
<stop offset="1" stop-color="#B4D99B"/>
</linearGradient>
<linearGradient id="paint1_linear_269_754" x1="2875.08" y1="754.445" x2="2882.8" y2="526.099" gradientUnits="userSpaceOnUse">
<stop stop-color="#B4D99B"/>
<stop offset="1" stop-color="#66B0EF"/>
</linearGradient>
<linearGradient id="paint2_linear_269_754" x1="89.7833" y1="1.75391" x2="89.7833" y2="761.189" gradientUnits="userSpaceOnUse">
<stop stop-color="#B4D99B"/>
<stop offset="1" stop-color="#66B0EF"/>
</linearGradient>
<linearGradient id="paint3_linear_269_754" x1="3036.43" y1="0" x2="3036.43" y2="759.435" gradientUnits="userSpaceOnUse">
<stop stop-color="#A19BF4"/>
<stop offset="1" stop-color="#66B0EF"/>
</linearGradient>
<linearGradient id="paint4_linear_269_754" x1="824.693" y1="1.75391" x2="824.693" y2="761.189" gradientUnits="userSpaceOnUse">
<stop stop-color="#B4D99B"/>
<stop offset="1" stop-color="#66B0EF"/>
</linearGradient>
<linearGradient id="paint5_linear_269_754" x1="1295.95" y1="1.75391" x2="1295.95" y2="761.189" gradientUnits="userSpaceOnUse">
<stop stop-color="#A19BF4"/>
<stop offset="1" stop-color="#DDC966"/>
</linearGradient>
<linearGradient id="paint6_linear_269_754" x1="1822.38" y1="0" x2="1822.38" y2="759.435" gradientUnits="userSpaceOnUse">
<stop stop-color="#A19BF4"/>
<stop offset="1" stop-color="#DDC966"/>
</linearGradient>
<linearGradient id="paint7_linear_269_754" x1="2290.13" y1="1.75391" x2="2290.13" y2="761.189" gradientUnits="userSpaceOnUse">
<stop stop-color="#A19BF4"/>
<stop offset="1" stop-color="#66B0EF"/>
</linearGradient>
</defs>
</svg>
